<?xml version="1.0" encoding="UTF-8" standalone="no"?>
<!DOCTYPE svg PUBLIC "-//W3C//DTD SVG 1.1//EN" "http://www.w3.org/Graphics/SVG/1.1/DTD/svg11.dtd">
<svg width="100%" height="100%" viewBox="0 0 43 21" version="1.1" xmlns="http://www.w3.org/2000/svg" xmlns:xlink="http://www.w3.org/1999/xlink" xml:space="preserve" xmlns:serif="http://www.serif.com/" style="fill-rule:evenodd;clip-rule:evenodd;stroke-linecap:round;stroke-linejoin:round;stroke-miterlimit:2;">
    <g transform="matrix(1,0,0,1,-14.983161,-19.17987)">
        <g id="_0" serif:id="0" transform="matrix(1,0,0,1,1.963432,53.977312)">
            <path id="SPLINE" d="M53.137,-31.933C52.986,-31.673 52.836,-31.414 52.686,-31.155C52.556,-30.932 52.426,-30.708 52.297,-30.484" style="fill:none;stroke:black;stroke-width:0.1px;"/>
            <path id="SPLINE1" serif:id="SPLINE" d="M50.869,-31.933C50.719,-31.673 50.569,-31.414 50.418,-31.155C50.289,-30.932 50.159,-30.708 50.029,-30.484" style="fill:none;stroke:black;stroke-width:0.1px;"/>
            <path id="SPLINE2" serif:id="SPLINE" d="M51.144,-19.289C51.28,-19.055 51.416,-18.82 51.552,-18.586C51.702,-18.327 51.853,-18.068 52.003,-17.809" style="fill:none;stroke:black;stroke-width:0.1px;"/>
            <path id="SPLINE3" serif:id="SPLINE" d="M53.412,-19.289C53.548,-19.055 53.684,-18.82 53.82,-18.586C53.939,-18.381 54.057,-18.177 54.176,-17.972" style="fill:none;stroke:black;stroke-width:0.1px;"/>
            <path id="LINE" d="M54.893,-31.05L54.564,-30.484" style="fill:none;stroke:black;stroke-width:0.1px;"/>
            <path id="SPLINE4" serif:id="SPLINE" d="M52.066,-30.453C52.023,-30.528 51.979,-30.603 51.936,-30.678C51.894,-30.749 51.853,-30.821 51.811,-30.892C51.772,-30.959 51.733,-31.027 51.694,-31.094C51.657,-31.158 51.62,-31.221 51.583,-31.285C51.549,-31.345 51.514,-31.405 51.48,-31.464C51.447,-31.52 51.415,-31.576 51.382,-31.632C51.352,-31.684 51.322,-31.736 51.292,-31.788C51.264,-31.836 51.236,-31.884 51.208,-31.933" style="fill:none;stroke:black;stroke-width:0.1px;"/>
            <path id="LINE1" serif:id="LINE" d="M49.799,-30.453L49.763,-30.514" style="fill:none;stroke:black;stroke-width:0.1px;"/>
            <path id="SPLINE5" serif:id="SPLINE" d="M52.342,-17.809C52.37,-17.857 52.486,-18.057 52.516,-18.109C52.549,-18.165 52.581,-18.221 52.613,-18.277C52.648,-18.337 52.683,-18.396 52.717,-18.456C52.754,-18.52 52.791,-18.583 52.828,-18.647C52.867,-18.714 52.906,-18.782 52.945,-18.849C52.987,-18.921 53.028,-18.992 53.069,-19.063C53.107,-19.128 53.144,-19.192 53.182,-19.257" style="fill:none;stroke:black;stroke-width:0.1px;"/>
            <path id="SPLINE6" serif:id="SPLINE" d="M50.074,-17.809C50.102,-17.857 50.13,-17.905 50.158,-17.953C50.188,-18.005 50.218,-18.057 50.248,-18.109C50.281,-18.165 50.313,-18.221 50.346,-18.277C50.38,-18.337 50.415,-18.396 50.45,-18.456C50.486,-18.52 50.523,-18.583 50.56,-18.647C50.599,-18.714 50.638,-18.782 50.678,-18.849C50.719,-18.921 50.76,-18.992 50.802,-19.063C50.839,-19.128 50.877,-19.192 50.914,-19.257" style="fill:none;stroke:black;stroke-width:0.1px;"/>
            <path id="LINE2" serif:id="LINE" d="M55.441,-19.242L55.45,-19.257" style="fill:none;stroke:black;stroke-width:0.1px;"/>
            <path id="SPLINE7" serif:id="SPLINE" d="M54.334,-30.453C54.29,-30.528 54.247,-30.603 54.203,-30.678C54.162,-30.749 54.121,-30.821 54.079,-30.892C54.04,-30.959 54.001,-31.027 53.962,-31.094C53.925,-31.158 53.888,-31.221 53.851,-31.285C53.817,-31.345 53.782,-31.405 53.747,-31.464C53.715,-31.52 53.682,-31.576 53.65,-31.632C53.62,-31.684 53.504,-31.884 53.476,-31.933" style="fill:none;stroke:black;stroke-width:0.1px;"/>
            <path id="LINE3" serif:id="LINE" d="M55.488,-19.257L55.716,-19.485" style="fill:none;stroke:black;stroke-width:0.1px;"/>
            <path id="LINE4" serif:id="LINE" d="M54.195,-17.964L55.356,-19.126" style="fill:none;stroke:black;stroke-width:0.1px;"/>
            <path id="LINE5" serif:id="LINE" d="M55.716,-30.256L54.914,-31.058" style="fill:none;stroke:black;stroke-width:0.1px;"/>
            <path id="LINE6" serif:id="LINE" d="M51.18,-31.957L50.897,-31.957" style="fill:none;stroke:black;stroke-width:0.1px;"/>
            <path id="LINE7" serif:id="LINE" d="M53.448,-31.957L53.164,-31.957" style="fill:none;stroke:black;stroke-width:0.1px;"/>
            <path id="LINE8" serif:id="LINE" d="M52.031,-17.784L52.314,-17.784" style="fill:none;stroke:black;stroke-width:0.1px;"/>
            <path id="LINE9" serif:id="LINE" d="M49.763,-17.784L50.046,-17.784" style="fill:none;stroke:black;stroke-width:0.1px;"/>
            <path id="LINE10" serif:id="LINE" d="M55.432,-19.257L55.488,-19.257" style="fill:none;stroke:black;stroke-width:0.1px;"/>
            <path id="LINE11" serif:id="LINE" d="M53.164,-19.257L53.431,-19.257" style="fill:none;stroke:black;stroke-width:0.1px;"/>
            <path id="LINE12" serif:id="LINE" d="M50.897,-19.257L51.163,-19.257" style="fill:none;stroke:black;stroke-width:0.1px;"/>
            <path id="LINE13" serif:id="LINE" d="M50.046,-30.484L49.78,-30.484" style="fill:none;stroke:black;stroke-width:0.1px;"/>
            <path id="LINE14" serif:id="LINE" d="M52.314,-30.484L52.048,-30.484" style="fill:none;stroke:black;stroke-width:0.1px;"/>
            <path id="LINE15" serif:id="LINE" d="M54.582,-30.484L54.316,-30.484" style="fill:none;stroke:black;stroke-width:0.1px;"/>
            <path id="LINE16" serif:id="LINE" d="M48.601,-31.933L48.346,-31.492" style="fill:none;stroke:black;stroke-width:0.1px;"/>
            <path id="SPLINE8" serif:id="SPLINE" d="M48.877,-19.289C49.002,-19.073 49.127,-18.857 49.253,-18.641C49.413,-18.363 49.574,-18.086 49.735,-17.809" style="fill:none;stroke:black;stroke-width:0.1px;"/>
            <path id="SPLINE9" serif:id="SPLINE" d="M48.346,-18.738C48.367,-18.775 48.388,-18.812 48.41,-18.849C48.451,-18.921 48.493,-18.992 48.534,-19.063C48.571,-19.128 48.609,-19.192 48.646,-19.257" style="fill:none;stroke:black;stroke-width:0.1px;"/>
            <path id="SPLINE10" serif:id="SPLINE" d="M49.763,-30.514C49.731,-30.568 49.7,-30.623 49.668,-30.678C49.626,-30.749 49.585,-30.821 49.544,-30.892C49.505,-30.959 49.466,-31.027 49.426,-31.094C49.39,-31.158 49.353,-31.221 49.316,-31.285C49.281,-31.345 49.246,-31.405 49.212,-31.464C49.179,-31.52 49.147,-31.576 49.115,-31.632C49.084,-31.684 49.054,-31.736 49.024,-31.788C48.996,-31.836 48.968,-31.884 48.94,-31.933" style="fill:none;stroke:black;stroke-width:0.1px;"/>
            <path id="LINE17" serif:id="LINE" d="M48.913,-31.957L48.629,-31.957" style="fill:none;stroke:black;stroke-width:0.1px;"/>
            <path id="LINE18" serif:id="LINE" d="M48.629,-19.257L48.895,-19.257" style="fill:none;stroke:black;stroke-width:0.1px;"/>
            <path id="SPLINE11" serif:id="SPLINE" d="M54.015,-19.814C54.013,-19.837 54.012,-19.86 54.01,-19.883C54.005,-19.953 54,-20.023 53.995,-20.094C53.99,-20.167 53.985,-20.239 53.98,-20.312C53.975,-20.387 53.971,-20.461 53.966,-20.536C53.961,-20.612 53.957,-20.689 53.952,-20.765C53.947,-20.843 53.943,-20.921 53.938,-20.999C53.934,-21.078 53.93,-21.157 53.925,-21.237C53.92,-21.332 53.915,-21.427 53.91,-21.523C53.905,-21.621 53.899,-21.72 53.894,-21.819C53.889,-21.921 53.867,-22.335 53.861,-22.44C53.856,-22.536 53.787,-23.832 53.781,-23.935C53.776,-24.038 53.689,-25.662 53.684,-25.76C53.679,-25.858 53.574,-27.825 53.569,-27.907C53.565,-27.995 53.56,-28.084 53.555,-28.172C53.551,-28.258 53.546,-28.344 53.542,-28.429C53.537,-28.513 53.533,-28.597 53.528,-28.68C53.523,-28.763 53.518,-28.845 53.514,-28.928C53.509,-29.008 53.504,-29.089 53.499,-29.17C53.494,-29.249 53.489,-29.327 53.484,-29.406C53.479,-29.483 53.474,-29.559 53.469,-29.636C53.464,-29.71 53.458,-29.785 53.453,-29.859C53.448,-29.927 53.443,-29.995 53.438,-30.063C53.433,-30.128 53.428,-30.193 53.422,-30.259C53.417,-30.321 53.412,-30.384 53.407,-30.446C53.402,-30.505 53.397,-30.565 53.391,-30.624C53.386,-30.68 53.381,-30.737 53.375,-30.793C53.37,-30.845 53.365,-30.898 53.359,-30.951C53.355,-30.997 53.35,-31.044 53.344,-31.09C53.34,-31.133 53.335,-31.177 53.33,-31.22C53.325,-31.26 53.32,-31.299 53.315,-31.339C53.31,-31.376 53.305,-31.412 53.3,-31.448C53.295,-31.481 53.29,-31.514 53.285,-31.547C53.28,-31.58 53.275,-31.612 53.269,-31.645C53.264,-31.673 53.259,-31.701 53.253,-31.729C53.248,-31.752 53.243,-31.776 53.237,-31.8C53.233,-31.819 53.228,-31.838 53.222,-31.857C53.218,-31.872 53.213,-31.887 53.207,-31.901C53.203,-31.912 53.198,-31.923 53.192,-31.933C53.189,-31.939 53.184,-31.946 53.178,-31.951C53.174,-31.954 53.169,-31.957 53.164,-31.957C53.16,-31.957 53.155,-31.955 53.151,-31.952C53.146,-31.947 53.141,-31.941 53.138,-31.935C53.137,-31.934 53.137,-31.933 53.137,-31.932" style="fill:none;stroke:black;stroke-width:0.1px;"/>
            <path id="SPLINE12" serif:id="SPLINE" d="M52.031,-17.784C52.025,-17.786 52.02,-17.788 52.015,-17.792C52.008,-17.797 52.003,-17.806 51.999,-17.815C51.993,-17.828 51.988,-17.841 51.983,-17.854C51.976,-17.873 51.971,-17.891 51.966,-17.91C51.959,-17.934 51.954,-17.958 51.948,-17.983C51.942,-18.012 51.936,-18.041 51.931,-18.07C51.925,-18.105 51.919,-18.139 51.913,-18.174C51.907,-18.214 51.901,-18.254 51.895,-18.294C51.889,-18.339 51.883,-18.384 51.877,-18.43C51.871,-18.474 51.866,-18.519 51.861,-18.564C51.855,-18.612 51.849,-18.661 51.844,-18.71C51.838,-18.763 51.833,-18.815 51.828,-18.868C51.822,-18.924 51.817,-18.981 51.811,-19.037C51.806,-19.097 51.8,-19.157 51.795,-19.217C51.79,-19.28 51.784,-19.343 51.779,-19.407C51.773,-19.473 51.768,-19.54 51.763,-19.606C51.758,-19.675 51.752,-19.745 51.747,-19.814C51.745,-19.837 51.744,-19.86 51.742,-19.883C51.737,-19.953 51.732,-20.023 51.727,-20.094C51.722,-20.167 51.717,-20.239 51.713,-20.312C51.708,-20.387 51.703,-20.461 51.698,-20.536C51.694,-20.612 51.689,-20.689 51.684,-20.765C51.68,-20.843 51.675,-20.921 51.671,-20.999C51.666,-21.078 51.662,-21.157 51.658,-21.237C51.652,-21.332 51.647,-21.427 51.642,-21.523C51.637,-21.621 51.632,-21.72 51.626,-21.819C51.621,-21.921 51.599,-22.335 51.593,-22.44C51.588,-22.536 51.486,-24.453 51.48,-24.557C51.475,-24.662 51.406,-25.956 51.401,-26.053C51.395,-26.15 51.346,-27.069 51.342,-27.156C51.337,-27.241 51.292,-28.084 51.288,-28.172C51.283,-28.258 51.279,-28.344 51.274,-28.429C51.269,-28.513 51.265,-28.597 51.26,-28.68C51.256,-28.763 51.251,-28.845 51.246,-28.928C51.241,-29.008 51.236,-29.089 51.231,-29.17C51.226,-29.249 51.221,-29.327 51.216,-29.406C51.211,-29.483 51.206,-29.559 51.201,-29.636C51.196,-29.71 51.191,-29.785 51.185,-29.859C51.18,-29.927 51.175,-29.995 51.17,-30.063C51.165,-30.128 51.16,-30.193 51.155,-30.259C51.15,-30.321 51.144,-30.384 51.139,-30.446C51.134,-30.505 51.129,-30.565 51.123,-30.624C51.118,-30.68 51.113,-30.737 51.108,-30.793C51.102,-30.845 51.097,-30.898 51.092,-30.951C51.087,-30.997 51.082,-31.044 51.077,-31.09C51.072,-31.133 51.067,-31.177 51.062,-31.22C51.057,-31.26 51.052,-31.299 51.047,-31.339C51.042,-31.376 51.037,-31.412 51.032,-31.448C51.027,-31.481 51.023,-31.514 51.017,-31.547C51.012,-31.58 51.007,-31.612 51.001,-31.645C50.996,-31.673 50.991,-31.701 50.985,-31.729C50.98,-31.752 50.975,-31.776 50.97,-31.8C50.965,-31.819 50.96,-31.838 50.954,-31.857C50.95,-31.872 50.945,-31.887 50.939,-31.901C50.935,-31.912 50.93,-31.923 50.925,-31.933C50.921,-31.939 50.917,-31.946 50.91,-31.951C50.906,-31.954 50.902,-31.957 50.897,-31.957C50.892,-31.957 50.888,-31.955 50.884,-31.952C50.878,-31.947 50.874,-31.941 50.87,-31.935C50.87,-31.934 50.869,-31.933 50.869,-31.932" style="fill:none;stroke:black;stroke-width:0.1px;"/>
            <path id="SPLINE13" serif:id="SPLINE" d="M54.015,-19.814C54.018,-19.753 54.021,-19.692 54.024,-19.631C54.026,-19.586 54.029,-19.542 54.031,-19.497C54.033,-19.455 54.036,-19.412 54.038,-19.369C54.04,-19.328 54.043,-19.286 54.045,-19.245C54.047,-19.206 54.05,-19.166 54.052,-19.126C54.054,-19.088 54.057,-19.05 54.059,-19.012C54.062,-18.975 54.064,-18.939 54.067,-18.903C54.069,-18.868 54.071,-18.833 54.074,-18.799C54.076,-18.766 54.079,-18.733 54.081,-18.701C54.084,-18.66 54.087,-18.619 54.091,-18.578C54.094,-18.54 54.097,-18.502 54.101,-18.464C54.104,-18.43 54.107,-18.395 54.111,-18.361C54.114,-18.331 54.117,-18.3 54.121,-18.27C54.124,-18.243 54.127,-18.216 54.13,-18.189C54.133,-18.166 54.137,-18.143 54.14,-18.12C54.143,-18.101 54.147,-18.082 54.15,-18.063C54.153,-18.048 54.156,-18.033 54.16,-18.018C54.163,-18.007 54.166,-17.996 54.17,-17.986C54.172,-17.979 54.174,-17.973 54.179,-17.967C54.181,-17.964 54.185,-17.96 54.188,-17.961C54.19,-17.961 54.192,-17.963 54.195,-17.965" style="fill:none;stroke:black;stroke-width:0.1px;"/>
            <path id="SPLINE14" serif:id="SPLINE" d="M54.893,-31.05C54.895,-31.054 54.897,-31.058 54.901,-31.06C54.904,-31.062 54.907,-31.062 54.91,-31.061C54.913,-31.06 54.915,-31.057 54.917,-31.055C54.919,-31.05 54.922,-31.046 54.924,-31.041C54.926,-31.035 54.928,-31.028 54.931,-31.022C54.933,-31.013 54.936,-31.004 54.938,-30.995C54.941,-30.98 54.944,-30.964 54.947,-30.949C54.951,-30.93 54.954,-30.912 54.957,-30.894C54.96,-30.872 54.963,-30.85 54.966,-30.828C54.97,-30.803 54.973,-30.777 54.976,-30.751C54.98,-30.722 54.983,-30.693 54.986,-30.664C54.99,-30.631 54.993,-30.598 54.996,-30.565C55,-30.528 55.003,-30.492 55.007,-30.455C55.01,-30.415 55.014,-30.374 55.017,-30.334C55.021,-30.29 55.024,-30.247 55.027,-30.203C55.031,-30.158 55.034,-30.113 55.037,-30.069C55.041,-30.021 55.044,-29.974 55.047,-29.926C55.051,-29.875 55.054,-29.825 55.057,-29.774C55.061,-29.72 55.064,-29.667 55.067,-29.613C55.071,-29.556 55.074,-29.499 55.077,-29.442C55.081,-29.382 55.084,-29.322 55.087,-29.263C55.091,-29.2 55.094,-29.137 55.098,-29.074C55.101,-29.009 55.104,-28.944 55.107,-28.878C55.111,-28.813 55.114,-28.747 55.117,-28.681C55.12,-28.613 55.123,-28.545 55.126,-28.477C55.13,-28.407 55.133,-28.337 55.136,-28.266C55.139,-28.194 55.142,-28.122 55.145,-28.05C55.148,-27.974 55.151,-27.899 55.154,-27.824C55.157,-27.747 55.16,-27.67 55.163,-27.593C55.166,-27.514 55.169,-27.435 55.172,-27.356C55.176,-27.275 55.179,-27.195 55.182,-27.114C55.185,-27.036 55.188,-26.957 55.191,-26.879C55.195,-26.8 55.198,-26.72 55.201,-26.641C55.204,-26.56 55.207,-26.479 55.211,-26.398C55.214,-26.316 55.217,-26.234 55.221,-26.153C55.224,-26.069 55.227,-25.985 55.231,-25.902C55.234,-25.818 55.238,-25.733 55.241,-25.649C55.244,-25.564 55.248,-25.479 55.251,-25.394C55.255,-25.309 55.258,-25.223 55.262,-25.138C55.265,-25.057 55.268,-24.976 55.272,-24.896C55.275,-24.815 55.278,-24.734 55.282,-24.654C55.285,-24.573 55.288,-24.492 55.292,-24.411C55.295,-24.331 55.298,-24.25 55.302,-24.169C55.305,-24.088 55.309,-24.007 55.312,-23.926C55.315,-23.846 55.319,-23.765 55.322,-23.685C55.325,-23.605 55.329,-23.525 55.332,-23.444C55.335,-23.365 55.339,-23.286 55.342,-23.207C55.345,-23.131 55.348,-23.056 55.352,-22.98C55.355,-22.905 55.358,-22.831 55.361,-22.756C55.364,-22.682 55.367,-22.609 55.37,-22.535C55.374,-22.463 55.386,-22.175 55.389,-22.104C55.392,-22.034 55.395,-21.964 55.398,-21.894C55.401,-21.826 55.404,-21.758 55.407,-21.69C55.41,-21.624 55.414,-21.558 55.417,-21.491C55.42,-21.436 55.422,-21.381 55.425,-21.326C55.428,-21.273 55.431,-21.22 55.434,-21.167C55.436,-21.115 55.439,-21.064 55.442,-21.012C55.445,-20.962 55.448,-20.913 55.451,-20.863C55.454,-20.815 55.457,-20.767 55.46,-20.718C55.463,-20.673 55.466,-20.627 55.469,-20.581C55.472,-20.537 55.475,-20.493 55.478,-20.449C55.482,-20.407 55.485,-20.365 55.488,-20.324" style="fill:none;stroke:black;stroke-width:0.1px;"/>
            <path id="SPLINE15" serif:id="SPLINE" d="M55.488,-20.324C55.481,-20.386 55.474,-20.448 55.467,-20.51C55.46,-20.577 55.454,-20.643 55.447,-20.709C55.44,-20.779 55.434,-20.849 55.427,-20.919C55.421,-20.986 55.415,-21.054 55.409,-21.121C55.403,-21.19 55.398,-21.26 55.392,-21.33C55.386,-21.402 55.38,-21.473 55.375,-21.545C55.369,-21.619 55.364,-21.693 55.358,-21.766C55.353,-21.842 55.348,-21.917 55.343,-21.992C55.337,-22.067 55.332,-22.143 55.327,-22.218C55.322,-22.297 55.301,-22.615 55.295,-22.696C55.29,-22.779 55.23,-23.657 55.224,-23.748C55.218,-23.84 55.117,-25.341 55.111,-25.435C55.104,-25.528 55.026,-26.697 55.02,-26.783C55.014,-26.866 54.992,-27.195 54.987,-27.276C54.981,-27.356 54.976,-27.436 54.971,-27.516C54.965,-27.593 54.96,-27.67 54.955,-27.747C54.95,-27.822 54.945,-27.898 54.939,-27.973C54.934,-28.047 54.928,-28.121 54.923,-28.194C54.917,-28.266 54.911,-28.338 54.906,-28.41C54.9,-28.48 54.894,-28.55 54.888,-28.62C54.882,-28.687 54.876,-28.755 54.87,-28.822C54.864,-28.886 54.858,-28.951 54.852,-29.015C54.846,-29.076 54.84,-29.138 54.833,-29.199C54.827,-29.257 54.821,-29.315 54.815,-29.373C54.809,-29.427 54.802,-29.481 54.796,-29.536C54.79,-29.586 54.783,-29.637 54.777,-29.687C54.771,-29.733 54.765,-29.778 54.758,-29.824C54.752,-29.865 54.746,-29.907 54.739,-29.948C54.734,-29.986 54.727,-30.023 54.721,-30.06C54.715,-30.093 54.709,-30.126 54.702,-30.159C54.697,-30.189 54.691,-30.218 54.684,-30.247C54.678,-30.271 54.672,-30.296 54.666,-30.32C54.66,-30.341 54.655,-30.36 54.648,-30.38C54.643,-30.396 54.637,-30.411 54.631,-30.426C54.626,-30.437 54.62,-30.448 54.614,-30.459C54.609,-30.466 54.604,-30.474 54.598,-30.478C54.593,-30.481 54.587,-30.483 54.582,-30.484" style="fill:none;stroke:black;stroke-width:0.1px;"/>
            <path id="SPLINE16" serif:id="SPLINE" d="M53.412,-19.29C53.407,-19.299 53.403,-19.307 53.398,-19.316C53.391,-19.332 53.386,-19.348 53.381,-19.364C53.374,-19.384 53.368,-19.404 53.363,-19.425C53.356,-19.45 53.35,-19.475 53.344,-19.5C53.338,-19.53 53.332,-19.56 53.326,-19.59C53.32,-19.621 53.314,-19.653 53.308,-19.684C53.302,-19.719 53.296,-19.755 53.291,-19.79C53.285,-19.829 53.279,-19.868 53.273,-19.907C53.267,-19.95 53.261,-19.993 53.255,-20.036C53.249,-20.082 53.243,-20.128 53.238,-20.175C53.232,-20.224 53.226,-20.274 53.22,-20.324C53.213,-20.386 53.206,-20.448 53.2,-20.51C53.193,-20.577 53.186,-20.643 53.179,-20.709C53.172,-20.779 53.166,-20.849 53.159,-20.919C53.153,-20.986 53.147,-21.054 53.142,-21.121C53.136,-21.19 53.13,-21.26 53.124,-21.33C53.118,-21.402 53.113,-21.473 53.107,-21.545C53.102,-21.619 53.096,-21.693 53.091,-21.766C53.085,-21.842 53.08,-21.917 53.075,-21.992C53.07,-22.067 53.065,-22.143 53.06,-22.218C53.054,-22.297 53.033,-22.615 53.027,-22.696C53.022,-22.779 52.925,-24.211 52.919,-24.305C52.913,-24.399 52.83,-25.622 52.824,-25.715C52.818,-25.807 52.725,-27.195 52.719,-27.276C52.714,-27.356 52.708,-27.436 52.703,-27.516C52.698,-27.593 52.693,-27.67 52.687,-27.747C52.682,-27.822 52.677,-27.898 52.671,-27.973C52.666,-28.047 52.661,-28.121 52.655,-28.194C52.649,-28.266 52.644,-28.338 52.638,-28.41C52.632,-28.48 52.626,-28.55 52.62,-28.62C52.615,-28.687 52.609,-28.755 52.603,-28.822C52.597,-28.886 52.591,-28.951 52.584,-29.015C52.578,-29.076 52.572,-29.138 52.566,-29.199C52.56,-29.257 52.553,-29.315 52.547,-29.373C52.541,-29.427 52.535,-29.481 52.528,-29.536C52.522,-29.586 52.516,-29.637 52.509,-29.687C52.503,-29.733 52.497,-29.778 52.49,-29.824C52.484,-29.865 52.478,-29.907 52.472,-29.948C52.466,-29.986 52.46,-30.023 52.453,-30.06C52.447,-30.093 52.441,-30.126 52.435,-30.159C52.429,-30.189 52.423,-30.218 52.416,-30.247C52.411,-30.271 52.405,-30.296 52.398,-30.32C52.393,-30.341 52.387,-30.36 52.38,-30.38C52.375,-30.396 52.37,-30.411 52.363,-30.426C52.358,-30.437 52.353,-30.448 52.346,-30.459C52.342,-30.466 52.337,-30.474 52.33,-30.478C52.325,-30.481 52.32,-30.483 52.314,-30.484" style="fill:none;stroke:black;stroke-width:0.1px;"/>
            <path id="SPLINE17" serif:id="SPLINE" d="M51.144,-19.29C51.14,-19.299 51.135,-19.307 51.131,-19.316C51.124,-19.332 51.118,-19.348 51.113,-19.364C51.107,-19.384 51.101,-19.404 51.095,-19.425C51.088,-19.45 51.082,-19.475 51.077,-19.5C51.07,-19.53 51.064,-19.56 51.058,-19.59C51.052,-19.621 51.046,-19.653 51.041,-19.684C51.034,-19.719 51.029,-19.755 51.023,-19.79C51.017,-19.829 51.011,-19.868 51.005,-19.907C50.999,-19.95 50.993,-19.993 50.988,-20.036C50.982,-20.082 50.976,-20.128 50.97,-20.175C50.964,-20.224 50.958,-20.274 50.952,-20.324C50.945,-20.386 50.938,-20.448 50.932,-20.51C50.925,-20.577 50.918,-20.643 50.912,-20.709C50.905,-20.779 50.898,-20.849 50.892,-20.919C50.886,-20.986 50.88,-21.054 50.874,-21.121C50.868,-21.19 50.862,-21.26 50.856,-21.33C50.851,-21.402 50.845,-21.473 50.839,-21.545C50.834,-21.619 50.828,-21.693 50.823,-21.766C50.818,-21.842 50.812,-21.917 50.807,-21.992C50.802,-22.067 50.797,-22.143 50.792,-22.218C50.787,-22.297 50.781,-22.375 50.776,-22.453C50.771,-22.534 50.731,-23.12 50.725,-23.207C50.719,-23.296 50.582,-25.341 50.575,-25.435C50.569,-25.528 50.49,-26.697 50.485,-26.783C50.479,-26.866 50.457,-27.195 50.451,-27.276C50.446,-27.356 50.441,-27.436 50.435,-27.516C50.43,-27.593 50.425,-27.67 50.42,-27.747C50.414,-27.822 50.409,-27.898 50.404,-27.973C50.398,-28.047 50.393,-28.121 50.387,-28.194C50.382,-28.266 50.376,-28.338 50.37,-28.41C50.365,-28.48 50.359,-28.55 50.353,-28.62C50.347,-28.687 50.341,-28.755 50.335,-28.822C50.329,-28.886 50.323,-28.951 50.317,-29.015C50.311,-29.076 50.304,-29.138 50.298,-29.199C50.292,-29.257 50.286,-29.315 50.279,-29.373C50.273,-29.427 50.267,-29.481 50.26,-29.536C50.254,-29.586 50.248,-29.637 50.241,-29.687C50.235,-29.733 50.229,-29.778 50.223,-29.824C50.217,-29.865 50.21,-29.907 50.204,-29.948C50.198,-29.986 50.192,-30.023 50.185,-30.06C50.18,-30.093 50.174,-30.126 50.167,-30.159C50.161,-30.189 50.155,-30.218 50.149,-30.247C50.143,-30.271 50.137,-30.296 50.13,-30.32C50.125,-30.341 50.119,-30.36 50.113,-30.38C50.107,-30.396 50.102,-30.411 50.095,-30.426C50.09,-30.437 50.085,-30.448 50.078,-30.459C50.074,-30.466 50.069,-30.474 50.062,-30.478C50.057,-30.481 50.052,-30.483 50.046,-30.484" style="fill:none;stroke:black;stroke-width:0.1px;"/>
            <path id="SPLINE18" serif:id="SPLINE" d="M55.432,-19.257C55.427,-19.259 55.421,-19.26 55.416,-19.263C55.41,-19.268 55.405,-19.275 55.4,-19.282C55.394,-19.293 55.388,-19.304 55.383,-19.315C55.377,-19.33 55.371,-19.345 55.366,-19.361C55.36,-19.38 55.354,-19.4 55.348,-19.42C55.342,-19.444 55.336,-19.468 55.331,-19.492C55.324,-19.52 55.318,-19.549 55.312,-19.577C55.306,-19.61 55.3,-19.643 55.294,-19.675C55.288,-19.712 55.281,-19.749 55.276,-19.787C55.269,-19.829 55.263,-19.871 55.257,-19.913C55.25,-19.96 55.244,-20.006 55.237,-20.053C55.231,-20.103 55.224,-20.154 55.218,-20.204C55.212,-20.259 55.205,-20.313 55.199,-20.367C55.193,-20.425 55.187,-20.483 55.181,-20.541C55.174,-20.603 55.168,-20.664 55.162,-20.726C55.156,-20.79 55.15,-20.855 55.144,-20.919C55.138,-20.986 55.132,-21.054 55.126,-21.121C55.12,-21.19 55.114,-21.26 55.108,-21.33C55.103,-21.402 55.097,-21.473 55.091,-21.545C55.086,-21.619 55.08,-21.693 55.075,-21.766C55.07,-21.842 55.064,-21.917 55.059,-21.992C55.054,-22.067 55.049,-22.143 55.044,-22.218C55.039,-22.297 55.017,-22.615 55.012,-22.696C55.006,-22.779 54.91,-24.211 54.903,-24.305C54.897,-24.399 54.815,-25.622 54.808,-25.715C54.802,-25.807 54.709,-27.195 54.703,-27.276C54.698,-27.356 54.693,-27.436 54.687,-27.516C54.682,-27.593 54.677,-27.67 54.672,-27.747C54.666,-27.822 54.661,-27.898 54.656,-27.973C54.65,-28.047 54.645,-28.121 54.639,-28.194C54.634,-28.266 54.628,-28.339 54.622,-28.41C54.617,-28.48 54.611,-28.55 54.605,-28.62C54.599,-28.687 54.593,-28.755 54.587,-28.822C54.581,-28.886 54.575,-28.951 54.569,-29.015C54.563,-29.076 54.556,-29.138 54.55,-29.199C54.544,-29.257 54.538,-29.315 54.531,-29.373C54.525,-29.427 54.519,-29.481 54.512,-29.536C54.506,-29.586 54.5,-29.637 54.493,-29.687C54.487,-29.733 54.481,-29.778 54.475,-29.824C54.469,-29.865 54.462,-29.907 54.456,-29.948C54.45,-29.986 54.444,-30.023 54.437,-30.06C54.432,-30.093 54.426,-30.126 54.419,-30.159C54.413,-30.189 54.407,-30.218 54.401,-30.247C54.395,-30.271 54.389,-30.296 54.382,-30.32C54.377,-30.341 54.371,-30.36 54.365,-30.38C54.36,-30.396 54.354,-30.411 54.347,-30.426C54.343,-30.435 54.339,-30.443 54.334,-30.452" style="fill:none;stroke:black;stroke-width:0.1px;"/>
            <path id="SPLINE19" serif:id="SPLINE" d="M53.164,-19.257C53.159,-19.259 53.153,-19.26 53.149,-19.263C53.142,-19.268 53.137,-19.275 53.133,-19.282C53.126,-19.293 53.121,-19.304 53.116,-19.315C53.109,-19.33 53.104,-19.345 53.098,-19.361C53.092,-19.38 53.086,-19.4 53.081,-19.42C53.074,-19.444 53.068,-19.468 53.063,-19.492C53.056,-19.52 53.05,-19.549 53.045,-19.577C53.038,-19.61 53.032,-19.643 53.026,-19.675C53.02,-19.712 53.014,-19.749 53.008,-19.787C53.001,-19.829 52.995,-19.871 52.989,-19.913C52.982,-19.96 52.976,-20.006 52.97,-20.053C52.963,-20.103 52.957,-20.154 52.951,-20.204C52.944,-20.259 52.938,-20.313 52.932,-20.367C52.925,-20.425 52.919,-20.483 52.913,-20.541C52.906,-20.603 52.9,-20.664 52.894,-20.726C52.888,-20.79 52.882,-20.855 52.876,-20.919C52.87,-20.986 52.864,-21.054 52.858,-21.121C52.852,-21.19 52.846,-21.26 52.841,-21.33C52.835,-21.402 52.829,-21.473 52.824,-21.545C52.818,-21.619 52.813,-21.693 52.807,-21.766C52.802,-21.842 52.797,-21.917 52.791,-21.992C52.786,-22.067 52.781,-22.143 52.776,-22.218C52.771,-22.297 52.766,-22.375 52.76,-22.453C52.755,-22.534 52.715,-23.12 52.71,-23.207C52.704,-23.296 52.566,-25.341 52.56,-25.435C52.553,-25.528 52.458,-26.95 52.452,-27.033C52.447,-27.114 52.441,-27.195 52.436,-27.276C52.43,-27.356 52.425,-27.436 52.419,-27.516C52.414,-27.593 52.409,-27.67 52.404,-27.747C52.399,-27.822 52.393,-27.898 52.388,-27.973C52.383,-28.047 52.377,-28.121 52.371,-28.194C52.366,-28.266 52.36,-28.338 52.354,-28.41C52.349,-28.48 52.343,-28.55 52.337,-28.62C52.331,-28.687 52.325,-28.755 52.319,-28.822C52.313,-28.886 52.307,-28.951 52.301,-29.015C52.295,-29.076 52.289,-29.138 52.282,-29.199C52.276,-29.257 52.27,-29.315 52.264,-29.373C52.257,-29.427 52.251,-29.481 52.245,-29.536C52.239,-29.586 52.232,-29.637 52.226,-29.687C52.22,-29.733 52.213,-29.778 52.207,-29.824C52.201,-29.865 52.195,-29.907 52.188,-29.948C52.182,-29.986 52.176,-30.023 52.17,-30.06C52.164,-30.093 52.158,-30.126 52.151,-30.159C52.146,-30.189 52.139,-30.218 52.133,-30.247C52.127,-30.271 52.121,-30.296 52.115,-30.32C52.109,-30.341 52.103,-30.36 52.097,-30.38C52.092,-30.396 52.086,-30.411 52.08,-30.426C52.075,-30.435 52.071,-30.443 52.066,-30.452" style="fill:none;stroke:black;stroke-width:0.1px;"/>
            <path id="SPLINE20" serif:id="SPLINE" d="M50.897,-19.257C50.891,-19.259 50.886,-19.26 50.881,-19.263C50.874,-19.268 50.869,-19.275 50.865,-19.282C50.858,-19.293 50.853,-19.304 50.848,-19.315C50.841,-19.33 50.836,-19.345 50.831,-19.361C50.824,-19.38 50.818,-19.4 50.813,-19.42C50.806,-19.444 50.801,-19.468 50.795,-19.492C50.789,-19.52 50.783,-19.549 50.777,-19.577C50.771,-19.61 50.764,-19.643 50.759,-19.675C50.752,-19.712 50.746,-19.749 50.74,-19.787C50.733,-19.829 50.727,-19.871 50.721,-19.913C50.714,-19.96 50.708,-20.006 50.702,-20.053C50.695,-20.103 50.689,-20.154 50.683,-20.204C50.676,-20.259 50.67,-20.313 50.664,-20.367C50.657,-20.425 50.651,-20.483 50.645,-20.541C50.639,-20.603 50.633,-20.664 50.627,-20.726C50.62,-20.79 50.614,-20.855 50.608,-20.919C50.602,-20.986 50.596,-21.054 50.59,-21.121C50.584,-21.19 50.579,-21.26 50.573,-21.33C50.567,-21.402 50.562,-21.473 50.556,-21.545C50.55,-21.619 50.545,-21.693 50.54,-21.766C50.534,-21.842 50.529,-21.917 50.524,-21.992C50.519,-22.067 50.513,-22.143 50.508,-22.218C50.503,-22.297 50.482,-22.615 50.476,-22.696C50.471,-22.779 50.412,-23.657 50.405,-23.748C50.399,-23.84 50.298,-25.341 50.292,-25.435C50.286,-25.528 50.224,-26.439 50.218,-26.526C50.213,-26.612 50.173,-27.195 50.168,-27.276C50.163,-27.356 50.157,-27.436 50.152,-27.516C50.147,-27.593 50.141,-27.67 50.136,-27.747C50.131,-27.822 50.126,-27.898 50.12,-27.973C50.115,-28.047 50.109,-28.121 50.104,-28.194C50.098,-28.266 50.093,-28.338 50.087,-28.41C50.081,-28.48 50.075,-28.55 50.069,-28.62C50.063,-28.687 50.058,-28.755 50.051,-28.822C50.045,-28.886 50.039,-28.951 50.033,-29.015C50.027,-29.076 50.021,-29.138 50.015,-29.199C50.009,-29.257 50.002,-29.315 49.996,-29.373C49.99,-29.427 49.983,-29.481 49.977,-29.536C49.971,-29.586 49.964,-29.637 49.958,-29.687C49.952,-29.733 49.946,-29.778 49.939,-29.824C49.933,-29.865 49.927,-29.907 49.92,-29.948C49.915,-29.986 49.908,-30.023 49.902,-30.06C49.896,-30.093 49.89,-30.126 49.884,-30.159C49.878,-30.189 49.872,-30.218 49.865,-30.247C49.859,-30.271 49.854,-30.296 49.847,-30.32C49.841,-30.341 49.836,-30.36 49.829,-30.38C49.824,-30.396 49.819,-30.411 49.812,-30.426C49.808,-30.435 49.803,-30.443 49.799,-30.452" style="fill:none;stroke:black;stroke-width:0.1px;"/>
            <path id="SPLINE21" serif:id="SPLINE" d="M55.44,-19.242C55.435,-19.232 55.429,-19.222 55.423,-19.212C55.413,-19.196 55.402,-19.18 55.391,-19.165C55.381,-19.153 55.371,-19.14 55.36,-19.129C55.35,-19.119 55.34,-19.11 55.329,-19.101C55.319,-19.094 55.308,-19.088 55.297,-19.082C55.287,-19.078 55.276,-19.074 55.265,-19.072C55.254,-19.07 55.243,-19.07 55.232,-19.071C55.221,-19.072 55.21,-19.074 55.199,-19.078C55.187,-19.083 55.176,-19.088 55.165,-19.095C55.153,-19.103 55.141,-19.112 55.131,-19.121C55.119,-19.132 55.107,-19.144 55.096,-19.157C55.084,-19.171 55.072,-19.186 55.062,-19.202C55.049,-19.219 55.038,-19.238 55.027,-19.256C55.014,-19.277 55.003,-19.299 54.991,-19.32C54.979,-19.345 54.967,-19.369 54.956,-19.394C54.943,-19.423 54.931,-19.452 54.92,-19.481C54.91,-19.505 54.901,-19.529 54.892,-19.554C54.882,-19.58 54.873,-19.606 54.864,-19.632C54.855,-19.66 54.846,-19.688 54.837,-19.716C54.827,-19.746 54.818,-19.776 54.809,-19.806C54.8,-19.838 54.791,-19.87 54.782,-19.902C54.773,-19.936 54.764,-19.97 54.755,-20.004C54.746,-20.04 54.737,-20.076 54.728,-20.112C54.719,-20.15 54.71,-20.187 54.701,-20.225C54.689,-20.278 54.677,-20.332 54.665,-20.385C54.654,-20.439 54.642,-20.494 54.632,-20.548C54.62,-20.605 54.609,-20.662 54.598,-20.72C54.587,-20.78 54.576,-20.84 54.566,-20.9C54.555,-20.963 54.544,-21.026 54.533,-21.09C54.522,-21.156 54.512,-21.222 54.501,-21.288C54.491,-21.357 54.48,-21.426 54.47,-21.495C54.46,-21.567 54.449,-21.638 54.439,-21.71C54.429,-21.783 54.418,-21.857 54.408,-21.931C54.397,-22.006 54.386,-22.081 54.376,-22.156C54.365,-22.232 54.354,-22.309 54.344,-22.386C54.333,-22.464 54.322,-22.543 54.311,-22.621C54.3,-22.702 54.289,-22.783 54.278,-22.864C54.267,-22.946 54.256,-23.028 54.244,-23.11C54.233,-23.195 54.222,-23.279 54.21,-23.364C54.199,-23.449 54.188,-23.535 54.176,-23.621C54.165,-23.708 54.153,-23.795 54.142,-23.882C54.131,-23.963 54.121,-24.044 54.11,-24.126C54.1,-24.208 54.089,-24.29 54.078,-24.372C54.068,-24.455 54.057,-24.537 54.047,-24.62C54.036,-24.704 54.025,-24.787 54.015,-24.871" style="fill:none;stroke:black;stroke-width:0.1px;"/>
            <path id="SPLINE22" serif:id="SPLINE" d="M49.763,-19.814C49.768,-19.748 49.773,-19.682 49.778,-19.616C49.783,-19.553 49.788,-19.489 49.793,-19.426C49.798,-19.366 49.803,-19.305 49.808,-19.245C49.813,-19.187 49.819,-19.129 49.824,-19.072C49.829,-19.018 49.834,-18.963 49.839,-18.909C49.844,-18.858 49.85,-18.807 49.855,-18.756C49.861,-18.7 49.867,-18.645 49.873,-18.589C49.879,-18.538 49.885,-18.488 49.892,-18.437C49.897,-18.391 49.904,-18.346 49.91,-18.301C49.916,-18.26 49.922,-18.22 49.928,-18.18C49.933,-18.148 49.938,-18.117 49.944,-18.086C49.949,-18.059 49.954,-18.031 49.959,-18.004C49.964,-17.982 49.969,-17.959 49.975,-17.936C49.979,-17.918 49.984,-17.899 49.99,-17.881C49.994,-17.866 49.999,-17.852 50.005,-17.838C50.009,-17.828 50.013,-17.817 50.019,-17.808C50.023,-17.801 50.027,-17.795 50.033,-17.79C50.037,-17.787 50.042,-17.784 50.046,-17.784C50.051,-17.784 50.056,-17.786 50.059,-17.79C50.065,-17.794 50.07,-17.8 50.073,-17.806C50.073,-17.807 50.074,-17.808 50.074,-17.809" style="fill:none;stroke:black;stroke-width:0.1px;"/>
            <path id="SPLINE23" serif:id="SPLINE" d="M51.18,-31.957C51.185,-31.956 51.189,-31.954 51.193,-31.952C51.199,-31.948 51.203,-31.941 51.207,-31.935C51.212,-31.926 51.217,-31.916 51.221,-31.907C51.226,-31.894 51.231,-31.88 51.235,-31.867C51.24,-31.85 51.245,-31.832 51.249,-31.815C51.255,-31.794 51.259,-31.773 51.264,-31.751C51.269,-31.728 51.274,-31.704 51.278,-31.68C51.283,-31.653 51.288,-31.625 51.293,-31.598C51.298,-31.567 51.303,-31.536 51.307,-31.505C51.312,-31.471 51.317,-31.437 51.322,-31.402C51.327,-31.364 51.332,-31.326 51.337,-31.289C51.343,-31.242 51.348,-31.196 51.354,-31.15C51.359,-31.099 51.365,-31.049 51.37,-30.998C51.376,-30.944 51.382,-30.889 51.387,-30.835C51.393,-30.777 51.398,-30.719 51.404,-30.66C51.409,-30.598 51.415,-30.537 51.42,-30.475C51.426,-30.409 51.431,-30.344 51.437,-30.279C51.442,-30.21 51.447,-30.142 51.453,-30.073C51.458,-30.002 51.464,-29.93 51.469,-29.859C51.474,-29.788 51.479,-29.718 51.484,-29.647C51.489,-29.575 51.493,-29.502 51.498,-29.429C51.503,-29.355 51.508,-29.28 51.513,-29.205C51.517,-29.129 51.522,-29.053 51.527,-28.976C51.531,-28.898 51.536,-28.82 51.54,-28.742C51.545,-28.663 51.549,-28.584 51.553,-28.505C51.558,-28.409 51.564,-28.314 51.569,-28.219C51.574,-28.12 51.579,-28.021 51.584,-27.923C51.59,-27.82 51.612,-27.406 51.618,-27.301C51.623,-27.205 51.725,-25.288 51.73,-25.184C51.736,-25.079 51.774,-24.375 51.779,-24.276C51.784,-24.178 51.85,-22.935 51.855,-22.847C51.86,-22.759 51.905,-21.916 51.909,-21.834C51.914,-21.746 51.919,-21.657 51.923,-21.569C51.928,-21.483 51.932,-21.398 51.937,-21.312C51.941,-21.228 51.946,-21.145 51.951,-21.061C51.955,-20.978 51.96,-20.896 51.965,-20.814C51.97,-20.733 51.975,-20.652 51.98,-20.571C51.984,-20.493 51.989,-20.414 51.995,-20.335C52,-20.258 52.005,-20.182 52.01,-20.105C52.015,-20.031 52.02,-19.957 52.026,-19.883C52.027,-19.86 52.029,-19.837 52.031,-19.814C52.035,-19.748 52.04,-19.682 52.046,-19.616C52.051,-19.553 52.056,-19.489 52.061,-19.426C52.066,-19.366 52.071,-19.305 52.076,-19.245C52.081,-19.187 52.086,-19.129 52.092,-19.072C52.097,-19.018 52.102,-18.963 52.107,-18.909C52.112,-18.858 52.117,-18.807 52.123,-18.756C52.129,-18.7 52.135,-18.645 52.141,-18.589C52.147,-18.538 52.153,-18.488 52.159,-18.437C52.165,-18.391 52.171,-18.346 52.178,-18.301C52.183,-18.26 52.189,-18.22 52.196,-18.18C52.201,-18.148 52.206,-18.117 52.212,-18.086C52.216,-18.059 52.222,-18.031 52.227,-18.004C52.232,-17.982 52.237,-17.959 52.243,-17.936C52.247,-17.918 52.252,-17.899 52.258,-17.881C52.262,-17.866 52.267,-17.852 52.272,-17.838C52.277,-17.828 52.281,-17.817 52.287,-17.808C52.29,-17.801 52.295,-17.795 52.301,-17.79C52.305,-17.787 52.309,-17.784 52.314,-17.784C52.319,-17.784 52.323,-17.786 52.327,-17.79C52.333,-17.794 52.337,-17.8 52.341,-17.806C52.341,-17.807 52.342,-17.808 52.342,-17.809" style="fill:none;stroke:black;stroke-width:0.1px;"/>
            <path id="SPLINE24" serif:id="SPLINE" d="M53.448,-31.957C53.453,-31.956 53.457,-31.954 53.461,-31.952C53.467,-31.948 53.471,-31.941 53.474,-31.935C53.48,-31.926 53.484,-31.916 53.488,-31.907C53.494,-31.894 53.498,-31.88 53.502,-31.867C53.508,-31.85 53.513,-31.832 53.517,-31.815C53.522,-31.794 53.527,-31.773 53.532,-31.751C53.537,-31.728 53.542,-31.704 53.546,-31.68C53.551,-31.653 53.556,-31.625 53.56,-31.598C53.566,-31.567 53.57,-31.536 53.575,-31.505C53.58,-31.471 53.585,-31.437 53.59,-31.402C53.595,-31.364 53.6,-31.326 53.605,-31.289C53.61,-31.242 53.616,-31.196 53.621,-31.15C53.627,-31.099 53.633,-31.049 53.638,-30.998C53.644,-30.944 53.649,-30.889 53.655,-30.835C53.66,-30.777 53.666,-30.719 53.671,-30.66C53.677,-30.598 53.682,-30.537 53.688,-30.475C53.693,-30.409 53.699,-30.344 53.704,-30.279C53.71,-30.21 53.715,-30.142 53.72,-30.073C53.726,-30.002 53.731,-29.93 53.736,-29.859C53.742,-29.788 53.746,-29.718 53.751,-29.647C53.756,-29.575 53.761,-29.502 53.766,-29.429C53.771,-29.355 53.776,-29.28 53.78,-29.205C53.785,-29.129 53.79,-29.053 53.794,-28.976C53.799,-28.898 53.803,-28.82 53.808,-28.742C53.812,-28.663 53.817,-28.584 53.821,-28.505C53.826,-28.409 53.831,-28.314 53.836,-28.219C53.842,-28.12 53.847,-28.021 53.852,-27.923C53.858,-27.82 53.88,-27.406 53.885,-27.301C53.89,-27.205 53.943,-26.216 53.949,-26.114C53.954,-26.012 54.009,-24.975 54.015,-24.871" style="fill:none;stroke:black;stroke-width:0.1px;"/>
            <path id="LINE19" serif:id="LINE" d="M49.763,-19.814L49.763,-30.513" style="fill:none;stroke:black;stroke-width:0.1px;"/>
            <path id="LINE20" serif:id="LINE" d="M55.488,-20.324L55.488,-19.257" style="fill:none;stroke:black;stroke-width:0.1px;"/>
            <path id="LINE21" serif:id="LINE" d="M54.015,-19.814L54.015,-24.871" style="fill:none;stroke:black;stroke-width:0.1px;"/>
            <path id="LINE22" serif:id="LINE" d="M55.716,-30.256L55.716,-19.485" style="fill:none;stroke:black;stroke-width:0.1px;"/>
            <path id="LINE23" serif:id="LINE" d="M49.763,-17.784L49.763,-19.814" style="fill:none;stroke:black;stroke-width:0.1px;"/>
            <path id="SPLINE25" serif:id="SPLINE" d="M49.763,-17.784C49.758,-17.785 49.754,-17.787 49.75,-17.79C49.744,-17.793 49.74,-17.8 49.736,-17.806C49.731,-17.816 49.727,-17.825 49.723,-17.834C49.717,-17.847 49.713,-17.861 49.708,-17.874C49.703,-17.892 49.698,-17.909 49.694,-17.926C49.689,-17.947 49.684,-17.969 49.679,-17.99C49.674,-18.014 49.669,-18.037 49.665,-18.061C49.66,-18.088 49.655,-18.116 49.65,-18.143C49.645,-18.174 49.64,-18.205 49.636,-18.236C49.631,-18.27 49.626,-18.305 49.621,-18.339C49.616,-18.377 49.611,-18.415 49.606,-18.453C49.6,-18.499 49.595,-18.545 49.59,-18.592C49.584,-18.642 49.578,-18.692 49.573,-18.743C49.567,-18.797 49.562,-18.852 49.556,-18.906C49.55,-18.964 49.545,-19.023 49.54,-19.081C49.534,-19.143 49.528,-19.205 49.523,-19.267C49.517,-19.332 49.512,-19.397 49.507,-19.463C49.501,-19.531 49.496,-19.6 49.49,-19.668C49.485,-19.74 49.48,-19.811 49.474,-19.883C49.469,-19.953 49.464,-20.023 49.46,-20.094C49.455,-20.167 49.45,-20.239 49.445,-20.312C49.44,-20.387 49.435,-20.461 49.431,-20.536C49.426,-20.612 49.421,-20.689 49.417,-20.765C49.412,-20.843 49.407,-20.921 49.403,-20.999C49.399,-21.078 49.394,-21.157 49.39,-21.237C49.385,-21.332 49.38,-21.427 49.375,-21.523C49.369,-21.621 49.364,-21.72 49.359,-21.819C49.353,-21.921 49.331,-22.335 49.326,-22.44C49.32,-22.536 49.218,-24.453 49.213,-24.557C49.207,-24.662 49.154,-25.662 49.149,-25.76C49.143,-25.858 49.038,-27.825 49.034,-27.907C49.029,-27.995 49.025,-28.084 49.02,-28.172C49.015,-28.258 49.011,-28.344 49.006,-28.429C49.002,-28.513 48.997,-28.597 48.992,-28.68C48.988,-28.763 48.983,-28.845 48.978,-28.928C48.973,-29.008 48.969,-29.089 48.964,-29.17C48.959,-29.249 48.954,-29.327 48.949,-29.406C48.944,-29.483 48.938,-29.559 48.933,-29.636C48.928,-29.71 48.923,-29.785 48.918,-29.859C48.913,-29.927 48.908,-29.995 48.902,-30.063C48.897,-30.128 48.892,-30.193 48.887,-30.259C48.882,-30.321 48.877,-30.384 48.871,-30.446C48.866,-30.505 48.861,-30.565 48.856,-30.624C48.851,-30.68 48.845,-30.737 48.84,-30.793C48.835,-30.845 48.829,-30.898 48.824,-30.951C48.819,-30.997 48.814,-31.044 48.809,-31.09C48.804,-31.133 48.799,-31.177 48.794,-31.22C48.789,-31.26 48.784,-31.299 48.779,-31.339C48.774,-31.376 48.77,-31.412 48.764,-31.448C48.76,-31.481 48.755,-31.514 48.75,-31.547C48.745,-31.58 48.739,-31.612 48.734,-31.645C48.729,-31.673 48.723,-31.701 48.718,-31.729C48.713,-31.752 48.708,-31.776 48.702,-31.8C48.697,-31.819 48.692,-31.838 48.687,-31.857C48.682,-31.872 48.677,-31.887 48.672,-31.901C48.667,-31.912 48.663,-31.923 48.657,-31.933C48.653,-31.939 48.649,-31.946 48.643,-31.951C48.639,-31.954 48.634,-31.957 48.629,-31.957C48.624,-31.957 48.62,-31.955 48.616,-31.952C48.61,-31.947 48.606,-31.941 48.603,-31.935C48.602,-31.934 48.602,-31.933 48.601,-31.932" style="fill:none;stroke:black;stroke-width:0.1px;"/>
            <path id="SPLINE26" serif:id="SPLINE" d="M48.877,-19.29C48.872,-19.298 48.868,-19.306 48.864,-19.315C48.857,-19.329 48.851,-19.345 48.846,-19.361C48.84,-19.38 48.834,-19.4 48.829,-19.42C48.822,-19.444 48.816,-19.468 48.811,-19.492C48.804,-19.52 48.798,-19.549 48.793,-19.577C48.786,-19.61 48.78,-19.643 48.774,-19.675C48.768,-19.712 48.762,-19.749 48.756,-19.787C48.749,-19.829 48.743,-19.871 48.737,-19.913C48.73,-19.96 48.724,-20.006 48.718,-20.053C48.711,-20.103 48.705,-20.154 48.699,-20.204C48.692,-20.259 48.686,-20.313 48.68,-20.367C48.673,-20.425 48.667,-20.483 48.661,-20.541C48.654,-20.603 48.648,-20.664 48.642,-20.726C48.636,-20.79 48.63,-20.855 48.624,-20.919C48.618,-20.986 48.612,-21.054 48.606,-21.121C48.6,-21.19 48.594,-21.26 48.589,-21.33C48.583,-21.402 48.577,-21.473 48.572,-21.545C48.566,-21.619 48.561,-21.693 48.555,-21.766C48.55,-21.842 48.545,-21.917 48.539,-21.992C48.534,-22.067 48.529,-22.143 48.524,-22.218C48.519,-22.297 48.497,-22.615 48.492,-22.696C48.486,-22.779 48.409,-23.932 48.403,-24.025C48.396,-24.118 48.352,-24.776 48.346,-24.871" style="fill:none;stroke:black;stroke-width:0.1px;"/>
            <path id="SPLINE27" serif:id="SPLINE" d="M48.629,-19.257C48.624,-19.259 48.618,-19.26 48.613,-19.263C48.606,-19.268 48.602,-19.275 48.597,-19.282C48.591,-19.293 48.585,-19.304 48.58,-19.315C48.574,-19.33 48.568,-19.345 48.563,-19.361C48.556,-19.38 48.551,-19.4 48.545,-19.42C48.539,-19.444 48.533,-19.468 48.527,-19.492C48.521,-19.52 48.515,-19.549 48.509,-19.577C48.503,-19.61 48.497,-19.643 48.491,-19.675C48.484,-19.712 48.478,-19.749 48.472,-19.787C48.466,-19.829 48.459,-19.871 48.453,-19.913C48.447,-19.96 48.44,-20.006 48.434,-20.053C48.428,-20.103 48.421,-20.154 48.415,-20.204C48.409,-20.259 48.402,-20.313 48.396,-20.367C48.39,-20.425 48.383,-20.483 48.377,-20.541C48.371,-20.603 48.365,-20.664 48.359,-20.726C48.354,-20.773 48.35,-20.819 48.346,-20.866" style="fill:none;stroke:black;stroke-width:0.1px;"/>
            <path id="LINE24" serif:id="LINE" d="M49.763,-19.814L49.763,-30.513" style="fill:none;stroke:black;stroke-width:0.1px;"/>
            <path id="SPLINE28" serif:id="SPLINE" d="M48.913,-31.957C48.918,-31.955 48.923,-31.953 48.928,-31.95C48.935,-31.944 48.94,-31.935 48.944,-31.926C48.95,-31.913 48.956,-31.9 48.96,-31.887C48.967,-31.869 48.972,-31.85 48.977,-31.831C48.984,-31.807 48.989,-31.783 48.995,-31.758C49.001,-31.729 49.007,-31.7 49.012,-31.671C49.019,-31.636 49.024,-31.602 49.03,-31.567C49.036,-31.527 49.042,-31.487 49.048,-31.447C49.054,-31.402 49.06,-31.357 49.066,-31.312C49.072,-31.267 49.077,-31.222 49.083,-31.177C49.088,-31.129 49.094,-31.08 49.099,-31.031C49.105,-30.979 49.11,-30.926 49.115,-30.873C49.121,-30.817 49.126,-30.761 49.132,-30.704C49.137,-30.644 49.143,-30.584 49.148,-30.524C49.154,-30.461 49.159,-30.398 49.164,-30.335C49.17,-30.268 49.175,-30.202 49.18,-30.135C49.186,-30.066 49.191,-29.996 49.196,-29.927C49.198,-29.904 49.199,-29.881 49.201,-29.859C49.206,-29.788 49.211,-29.718 49.216,-29.647C49.221,-29.575 49.226,-29.502 49.231,-29.429C49.235,-29.355 49.24,-29.28 49.245,-29.205C49.25,-29.129 49.254,-29.053 49.259,-28.976C49.263,-28.898 49.268,-28.82 49.272,-28.742C49.277,-28.663 49.281,-28.584 49.286,-28.505C49.291,-28.409 49.296,-28.314 49.301,-28.219C49.306,-28.12 49.311,-28.021 49.317,-27.923C49.322,-27.82 49.344,-27.406 49.35,-27.301C49.355,-27.205 49.408,-26.216 49.413,-26.114C49.419,-26.012 49.474,-24.975 49.479,-24.871C49.485,-24.771 49.537,-23.786 49.543,-23.688C49.548,-23.591 49.637,-21.916 49.641,-21.834C49.646,-21.746 49.651,-21.657 49.656,-21.569C49.66,-21.483 49.665,-21.398 49.669,-21.312C49.674,-21.228 49.678,-21.145 49.683,-21.061C49.688,-20.978 49.692,-20.896 49.697,-20.814C49.702,-20.733 49.707,-20.652 49.712,-20.571C49.717,-20.493 49.722,-20.414 49.727,-20.335C49.732,-20.258 49.737,-20.182 49.742,-20.105C49.747,-20.031 49.753,-19.957 49.758,-19.883C49.76,-19.86 49.761,-19.837 49.763,-19.814" style="fill:none;stroke:black;stroke-width:0.1px;"/>
            <path id="LINE25" serif:id="LINE" d="M49.763,-17.784L49.763,-19.814" style="fill:none;stroke:black;stroke-width:0.1px;"/>
            <path id="SPLINE29" serif:id="SPLINE" d="M42.536,-31.933C42.508,-31.884 42.48,-31.836 42.452,-31.788C42.422,-31.736 42.392,-31.684 42.362,-31.632C42.329,-31.576 42.297,-31.52 42.265,-31.464C42.23,-31.405 42.195,-31.345 42.161,-31.285C42.124,-31.222 42.087,-31.158 42.05,-31.094C42.011,-31.027 41.972,-30.959 41.933,-30.892C41.891,-30.821 41.85,-30.749 41.808,-30.678C41.771,-30.613 41.733,-30.549 41.696,-30.484" style="fill:none;stroke:black;stroke-width:0.1px;"/>
            <path id="SPLINE30" serif:id="SPLINE" d="M42.812,-19.289C42.855,-19.213 42.899,-19.138 42.942,-19.063C42.984,-18.992 43.025,-18.921 43.066,-18.849C43.106,-18.782 43.145,-18.714 43.184,-18.647C43.221,-18.583 43.258,-18.52 43.294,-18.456C43.329,-18.396 43.364,-18.337 43.398,-18.277C43.431,-18.221 43.463,-18.165 43.496,-18.109C43.526,-18.057 43.556,-18.005 43.586,-17.953C43.614,-17.905 43.642,-17.857 43.67,-17.809" style="fill:none;stroke:black;stroke-width:0.1px;"/>
            <path id="SPLINE31" serif:id="SPLINE" d="M40.544,-19.289C40.587,-19.213 40.631,-19.138 40.675,-19.063C40.716,-18.992 40.757,-18.921 40.799,-18.849C40.838,-18.782 40.877,-18.714 40.916,-18.647C40.953,-18.583 40.99,-18.52 41.027,-18.456C41.061,-18.396 41.096,-18.337 41.131,-18.277C41.163,-18.221 41.195,-18.165 41.228,-18.109C41.258,-18.057 41.288,-18.005 41.318,-17.953C41.346,-17.905 41.374,-17.857 41.402,-17.809" style="fill:none;stroke:black;stroke-width:0.1px;"/>
            <path id="SPLINE32" serif:id="SPLINE" d="M45.079,-19.289C45.123,-19.213 45.166,-19.138 45.21,-19.063C45.251,-18.992 45.293,-18.921 45.334,-18.849C45.355,-18.813 45.377,-18.776 45.398,-18.739" style="fill:none;stroke:black;stroke-width:0.1px;"/>
            <path id="SPLINE33" serif:id="SPLINE" d="M44.804,-31.933C44.776,-31.884 44.748,-31.836 44.72,-31.788C44.69,-31.736 44.66,-31.684 44.629,-31.632C44.597,-31.576 44.565,-31.52 44.532,-31.464C44.498,-31.405 44.463,-31.345 44.428,-31.285C44.391,-31.222 44.355,-31.158 44.318,-31.094C44.279,-31.027 44.239,-30.959 44.2,-30.892C44.159,-30.821 44.118,-30.749 44.076,-30.678C44.039,-30.613 44.001,-30.549 43.964,-30.484" style="fill:none;stroke:black;stroke-width:0.1px;"/>
            <path id="SPLINE34" serif:id="SPLINE" d="M43.733,-30.453C43.617,-30.652 43.502,-30.852 43.386,-31.052C43.357,-31.101 43.278,-31.237 43.268,-31.255C43.233,-31.315 43.199,-31.374 43.164,-31.434C43.068,-31.6 42.972,-31.766 42.875,-31.932" style="fill:none;stroke:black;stroke-width:0.1px;"/>
            <path id="SPLINE35" serif:id="SPLINE" d="M41.466,-30.453C41.35,-30.652 41.234,-30.852 41.118,-31.052C41.089,-31.101 41.011,-31.237 41,-31.255C40.966,-31.315 40.931,-31.374 40.896,-31.434C40.866,-31.486 40.836,-31.538 40.806,-31.59" style="fill:none;stroke:black;stroke-width:0.1px;"/>
            <path id="SPLINE36" serif:id="SPLINE" d="M41.741,-17.809C41.764,-17.849 41.852,-17.999 41.872,-18.035C41.89,-18.065 42.136,-18.49 42.139,-18.495C42.143,-18.502 42.267,-18.716 42.282,-18.741C42.298,-18.769 42.369,-18.892 42.388,-18.924C42.409,-18.961 42.499,-19.115 42.522,-19.155C42.542,-19.189 42.562,-19.223 42.581,-19.257" style="fill:none;stroke:black;stroke-width:0.1px;"/>
            <path id="SPLINE37" serif:id="SPLINE" d="M40.09,-18.872C40.1,-18.889 40.163,-18.997 40.184,-19.034C40.208,-19.074 40.294,-19.223 40.313,-19.257" style="fill:none;stroke:black;stroke-width:0.1px;"/>
            <path id="SPLINE38" serif:id="SPLINE" d="M44.009,-17.809C44.032,-17.849 44.176,-18.096 44.193,-18.127C44.208,-18.153 44.415,-18.509 44.419,-18.516C44.426,-18.529 44.535,-18.716 44.549,-18.741C44.566,-18.769 44.637,-18.892 44.656,-18.924C44.677,-18.961 44.766,-19.115 44.79,-19.155C44.81,-19.189 44.829,-19.223 44.849,-19.257" style="fill:none;stroke:black;stroke-width:0.1px;"/>
            <path id="LINE26" serif:id="LINE" d="M45.399,-31.491L45.143,-31.932" style="fill:none;stroke:black;stroke-width:0.1px;"/>
            <path id="LINE27" serif:id="LINE" d="M40.787,-31.598L39.446,-30.256" style="fill:none;stroke:black;stroke-width:0.1px;"/>
            <path id="LINE28" serif:id="LINE" d="M39.446,-19.485L40.068,-18.862" style="fill:none;stroke:black;stroke-width:0.1px;"/>
            <path id="LINE29" serif:id="LINE" d="M42.847,-31.957L42.564,-31.957" style="fill:none;stroke:black;stroke-width:0.1px;"/>
            <path id="LINE30" serif:id="LINE" d="M45.115,-31.957L44.832,-31.957" style="fill:none;stroke:black;stroke-width:0.1px;"/>
            <path id="LINE31" serif:id="LINE" d="M43.698,-17.784L43.981,-17.784" style="fill:none;stroke:black;stroke-width:0.1px;"/>
            <path id="LINE32" serif:id="LINE" d="M41.43,-17.784L41.713,-17.784" style="fill:none;stroke:black;stroke-width:0.1px;"/>
            <path id="LINE33" serif:id="LINE" d="M44.832,-19.257L45.098,-19.257" style="fill:none;stroke:black;stroke-width:0.1px;"/>
            <path id="LINE34" serif:id="LINE" d="M42.564,-19.257L42.83,-19.257" style="fill:none;stroke:black;stroke-width:0.1px;"/>
            <path id="LINE35" serif:id="LINE" d="M40.296,-19.257L40.562,-19.257" style="fill:none;stroke:black;stroke-width:0.1px;"/>
            <path id="LINE36" serif:id="LINE" d="M41.713,-30.484L41.447,-30.484" style="fill:none;stroke:black;stroke-width:0.1px;"/>
            <path id="LINE37" serif:id="LINE" d="M43.981,-30.484L43.715,-30.484" style="fill:none;stroke:black;stroke-width:0.1px;"/>
            <path id="SPLINE39" serif:id="SPLINE" d="M46.816,-31.492C46.74,-31.361 46.665,-31.231 46.589,-31.1C46.47,-30.895 46.351,-30.69 46.231,-30.484" style="fill:none;stroke:black;stroke-width:0.1px;"/>
            <path id="SPLINE40" serif:id="SPLINE" d="M45.398,-18.739C45.417,-18.706 45.436,-18.674 45.455,-18.641C45.616,-18.363 45.777,-18.086 45.937,-17.809" style="fill:none;stroke:black;stroke-width:0.1px;"/>
            <path id="SPLINE41" serif:id="SPLINE" d="M46.001,-30.453C45.958,-30.528 45.914,-30.603 45.87,-30.678C45.829,-30.749 45.788,-30.821 45.746,-30.892C45.707,-30.959 45.668,-31.027 45.629,-31.094C45.592,-31.158 45.555,-31.221 45.518,-31.285C45.484,-31.345 45.404,-31.482 45.399,-31.491" style="fill:none;stroke:black;stroke-width:0.1px;"/>
            <path id="SPLINE42" serif:id="SPLINE" d="M46.277,-17.809C46.305,-17.857 46.333,-17.905 46.36,-17.953C46.391,-18.005 46.421,-18.057 46.451,-18.109C46.483,-18.165 46.516,-18.221 46.548,-18.277C46.583,-18.337 46.617,-18.396 46.652,-18.456C46.689,-18.52 46.726,-18.583 46.763,-18.647C46.78,-18.678 46.798,-18.708 46.816,-18.738" style="fill:none;stroke:black;stroke-width:0.1px;"/>
            <path id="LINE38" serif:id="LINE" d="M45.965,-17.784L46.249,-17.784" style="fill:none;stroke:black;stroke-width:0.1px;"/>
            <path id="LINE39" serif:id="LINE" d="M46.249,-30.484L45.983,-30.484" style="fill:none;stroke:black;stroke-width:0.1px;"/>
            <path id="SPLINE43" serif:id="SPLINE" d="M39.674,-29.418C39.686,-29.382 39.698,-29.346 39.709,-29.309C39.722,-29.271 39.733,-29.232 39.745,-29.193C39.757,-29.151 39.768,-29.11 39.78,-29.068C39.791,-29.024 39.803,-28.979 39.814,-28.935C39.826,-28.887 39.838,-28.838 39.849,-28.79C39.861,-28.739 39.872,-28.688 39.883,-28.637C39.895,-28.584 39.906,-28.53 39.917,-28.476C39.928,-28.42 39.939,-28.364 39.949,-28.308C39.96,-28.252 39.97,-28.195 39.98,-28.138C39.991,-28.079 40.001,-28.021 40.011,-27.962C40.021,-27.901 40.031,-27.84 40.041,-27.779C40.051,-27.717 40.061,-27.654 40.071,-27.592C40.085,-27.504 40.099,-27.416 40.113,-27.328C40.127,-27.238 40.141,-27.147 40.155,-27.056C40.17,-26.963 40.184,-26.87 40.198,-26.777C40.21,-26.701 40.221,-26.624 40.233,-26.547C40.245,-26.469 40.256,-26.39 40.268,-26.312C40.28,-26.233 40.292,-26.153 40.303,-26.074C40.315,-25.993 40.327,-25.913 40.339,-25.832C40.351,-25.749 40.363,-25.665 40.375,-25.581C40.387,-25.497 40.399,-25.412 40.411,-25.328C40.424,-25.242 40.436,-25.157 40.448,-25.072C40.46,-24.986 40.472,-24.9 40.484,-24.814C40.496,-24.726 40.508,-24.637 40.52,-24.549C40.533,-24.46 40.545,-24.371 40.557,-24.283C40.569,-24.194 40.581,-24.105 40.593,-24.016C40.605,-23.927 40.617,-23.838 40.628,-23.749C40.641,-23.658 40.653,-23.567 40.665,-23.475C40.677,-23.384 40.689,-23.293 40.701,-23.202C40.712,-23.111 40.724,-23.02 40.736,-22.93C40.747,-22.84 40.759,-22.75 40.77,-22.66C40.781,-22.573 40.792,-22.487 40.803,-22.4C40.814,-22.314 40.825,-22.228 40.836,-22.143C40.846,-22.058 40.857,-21.973 40.868,-21.888C40.878,-21.805 40.888,-21.721 40.899,-21.638C40.909,-21.553 40.919,-21.469 40.93,-21.385C40.94,-21.302 40.951,-21.219 40.961,-21.136C40.971,-21.054 40.982,-20.973 40.993,-20.892C41.003,-20.812 41.014,-20.732 41.025,-20.653C41.038,-20.556 41.051,-20.46 41.065,-20.364C41.078,-20.271 41.092,-20.178 41.105,-20.084C41.119,-19.994 41.133,-19.904 41.146,-19.814" style="fill:none;stroke:black;stroke-width:0.1px;"/>
            <path id="SPLINE44" serif:id="SPLINE" d="M45.398,-24.871C45.393,-24.97 45.325,-26.246 45.32,-26.343C45.315,-26.438 45.281,-27.069 45.277,-27.156C45.272,-27.241 45.227,-28.084 45.222,-28.172C45.218,-28.258 45.213,-28.344 45.209,-28.429C45.204,-28.513 45.2,-28.597 45.195,-28.68C45.19,-28.763 45.186,-28.845 45.181,-28.928C45.176,-29.008 45.171,-29.089 45.166,-29.17C45.161,-29.249 45.156,-29.327 45.151,-29.406C45.146,-29.483 45.141,-29.559 45.136,-29.636C45.131,-29.71 45.125,-29.785 45.12,-29.859C45.115,-29.927 45.11,-29.995 45.105,-30.063C45.1,-30.128 45.095,-30.193 45.089,-30.259C45.084,-30.321 45.079,-30.384 45.074,-30.446C45.069,-30.505 45.064,-30.565 45.058,-30.624C45.053,-30.68 45.048,-30.737 45.042,-30.793C45.037,-30.845 45.032,-30.898 45.026,-30.951C45.022,-30.997 45.017,-31.044 45.012,-31.09C45.007,-31.133 45.002,-31.177 44.997,-31.22C44.992,-31.26 44.987,-31.299 44.982,-31.339C44.977,-31.376 44.972,-31.412 44.967,-31.448C44.962,-31.481 44.957,-31.514 44.952,-31.547C44.947,-31.58 44.942,-31.612 44.936,-31.645C44.931,-31.673 44.926,-31.701 44.92,-31.729C44.915,-31.752 44.91,-31.776 44.904,-31.8C44.9,-31.819 44.895,-31.838 44.889,-31.857C44.885,-31.872 44.88,-31.887 44.874,-31.901C44.87,-31.912 44.865,-31.923 44.859,-31.933C44.856,-31.939 44.851,-31.946 44.845,-31.951C44.841,-31.954 44.836,-31.957 44.832,-31.957C44.827,-31.957 44.822,-31.955 44.818,-31.952C44.813,-31.947 44.808,-31.941 44.805,-31.935C44.805,-31.934 44.804,-31.933 44.804,-31.932" style="fill:none;stroke:black;stroke-width:0.1px;"/>
            <path id="SPLINE45" serif:id="SPLINE" d="M43.698,-17.784C43.693,-17.785 43.688,-17.787 43.685,-17.79C43.679,-17.793 43.675,-17.8 43.671,-17.806C43.666,-17.816 43.661,-17.825 43.657,-17.834C43.652,-17.847 43.647,-17.861 43.643,-17.874C43.638,-17.892 43.633,-17.909 43.629,-17.926C43.623,-17.947 43.618,-17.969 43.614,-17.99C43.609,-18.014 43.604,-18.037 43.6,-18.061C43.595,-18.088 43.59,-18.116 43.585,-18.143C43.58,-18.174 43.575,-18.205 43.571,-18.236C43.565,-18.27 43.561,-18.305 43.556,-18.339C43.551,-18.377 43.546,-18.415 43.541,-18.453C43.535,-18.499 43.53,-18.545 43.524,-18.592C43.519,-18.642 43.513,-18.692 43.508,-18.743C43.502,-18.797 43.496,-18.852 43.491,-18.906C43.485,-18.964 43.48,-19.023 43.474,-19.081C43.469,-19.143 43.463,-19.205 43.458,-19.267C43.452,-19.332 43.447,-19.397 43.441,-19.463C43.436,-19.531 43.43,-19.6 43.425,-19.668C43.42,-19.74 43.414,-19.811 43.409,-19.883C43.404,-19.953 43.399,-20.023 43.394,-20.094C43.389,-20.167 43.384,-20.239 43.38,-20.312C43.375,-20.387 43.37,-20.461 43.365,-20.536C43.361,-20.612 43.356,-20.689 43.351,-20.765C43.347,-20.843 43.342,-20.921 43.338,-20.999C43.333,-21.078 43.329,-21.157 43.325,-21.237C43.319,-21.332 43.314,-21.427 43.309,-21.523C43.304,-21.621 43.299,-21.72 43.293,-21.819C43.288,-21.921 43.266,-22.335 43.26,-22.44C43.255,-22.536 43.186,-23.832 43.181,-23.935C43.175,-24.038 43.089,-25.662 43.083,-25.76C43.078,-25.858 42.973,-27.825 42.969,-27.907C42.964,-27.995 42.959,-28.084 42.955,-28.172C42.95,-28.258 42.946,-28.344 42.941,-28.429C42.936,-28.513 42.932,-28.597 42.927,-28.68C42.923,-28.763 42.918,-28.845 42.913,-28.928C42.908,-29.008 42.903,-29.089 42.898,-29.17C42.893,-29.249 42.888,-29.327 42.883,-29.406C42.878,-29.483 42.873,-29.559 42.868,-29.636C42.863,-29.71 42.858,-29.785 42.852,-29.859C42.847,-29.927 42.842,-29.995 42.837,-30.063C42.832,-30.128 42.827,-30.193 42.822,-30.259C42.817,-30.321 42.811,-30.384 42.806,-30.446C42.801,-30.505 42.796,-30.565 42.79,-30.624C42.785,-30.68 42.78,-30.737 42.775,-30.793C42.77,-30.845 42.764,-30.898 42.759,-30.951C42.754,-30.997 42.749,-31.044 42.744,-31.09C42.739,-31.133 42.734,-31.177 42.729,-31.22C42.724,-31.26 42.719,-31.299 42.714,-31.339C42.709,-31.376 42.704,-31.412 42.699,-31.448C42.694,-31.481 42.69,-31.514 42.684,-31.547C42.679,-31.58 42.674,-31.612 42.668,-31.645C42.663,-31.673 42.658,-31.701 42.652,-31.729C42.647,-31.752 42.642,-31.776 42.637,-31.8C42.632,-31.819 42.627,-31.838 42.621,-31.857C42.617,-31.872 42.612,-31.887 42.606,-31.901C42.602,-31.912 42.597,-31.923 42.592,-31.933C42.588,-31.939 42.584,-31.946 42.578,-31.951C42.574,-31.954 42.569,-31.957 42.564,-31.957C42.559,-31.957 42.555,-31.955 42.551,-31.952C42.545,-31.947 42.541,-31.941 42.537,-31.935C42.537,-31.934 42.536,-31.933 42.536,-31.932" style="fill:none;stroke:black;stroke-width:0.1px;"/>
            <path id="SPLINE46" serif:id="SPLINE" d="M41.43,-17.784C41.425,-17.785 41.421,-17.787 41.417,-17.79C41.411,-17.793 41.407,-17.8 41.403,-17.806C41.398,-17.816 41.394,-17.825 41.39,-17.834C41.384,-17.847 41.38,-17.861 41.375,-17.874C41.37,-17.892 41.365,-17.909 41.361,-17.926C41.356,-17.947 41.351,-17.969 41.346,-17.99C41.341,-18.014 41.336,-18.037 41.332,-18.061C41.327,-18.088 41.322,-18.116 41.317,-18.143C41.312,-18.174 41.308,-18.205 41.303,-18.236C41.298,-18.27 41.293,-18.305 41.288,-18.339C41.283,-18.377 41.278,-18.415 41.273,-18.453C41.268,-18.499 41.262,-18.545 41.257,-18.592C41.251,-18.642 41.245,-18.692 41.24,-18.743C41.234,-18.797 41.229,-18.852 41.223,-18.906C41.218,-18.964 41.212,-19.023 41.207,-19.081C41.201,-19.143 41.195,-19.205 41.19,-19.267C41.184,-19.332 41.179,-19.397 41.174,-19.463C41.168,-19.531 41.163,-19.6 41.157,-19.668C41.154,-19.717 41.15,-19.765 41.146,-19.814" style="fill:none;stroke:black;stroke-width:0.1px;"/>
            <path id="LINE40" serif:id="LINE" d="M45.398,-18.74L45.398,-24.871" style="fill:none;stroke:black;stroke-width:0.1px;"/>
            <path id="SPLINE47" serif:id="SPLINE" d="M45.079,-19.29C45.075,-19.298 45.07,-19.306 45.066,-19.315C45.059,-19.329 45.054,-19.345 45.049,-19.361C45.042,-19.38 45.037,-19.4 45.031,-19.42C45.025,-19.444 45.019,-19.468 45.013,-19.492C45.007,-19.52 45.001,-19.549 44.995,-19.577C44.989,-19.61 44.983,-19.643 44.977,-19.675C44.97,-19.712 44.964,-19.749 44.958,-19.787C44.952,-19.829 44.945,-19.871 44.939,-19.913C44.933,-19.96 44.926,-20.006 44.92,-20.053C44.914,-20.103 44.907,-20.154 44.901,-20.204C44.895,-20.259 44.888,-20.313 44.882,-20.367C44.876,-20.425 44.869,-20.483 44.863,-20.541C44.857,-20.603 44.851,-20.664 44.845,-20.726C44.838,-20.79 44.832,-20.855 44.827,-20.919C44.82,-20.986 44.814,-21.054 44.809,-21.121C44.803,-21.19 44.797,-21.26 44.791,-21.33C44.785,-21.402 44.78,-21.473 44.774,-21.545C44.769,-21.619 44.763,-21.693 44.758,-21.766C44.752,-21.842 44.747,-21.917 44.742,-21.992C44.737,-22.067 44.732,-22.143 44.727,-22.218C44.721,-22.297 44.7,-22.615 44.694,-22.696C44.689,-22.779 44.63,-23.657 44.624,-23.748C44.617,-23.84 44.516,-25.341 44.51,-25.435C44.504,-25.528 44.442,-26.439 44.437,-26.526C44.431,-26.612 44.392,-27.195 44.386,-27.276C44.381,-27.356 44.375,-27.436 44.37,-27.516C44.365,-27.593 44.36,-27.67 44.354,-27.747C44.349,-27.822 44.344,-27.898 44.338,-27.973C44.333,-28.047 44.328,-28.121 44.322,-28.194C44.316,-28.266 44.311,-28.338 44.305,-28.41C44.299,-28.48 44.293,-28.55 44.287,-28.62C44.282,-28.687 44.276,-28.755 44.27,-28.822C44.264,-28.886 44.258,-28.951 44.251,-29.015C44.245,-29.076 44.239,-29.138 44.233,-29.199C44.227,-29.257 44.221,-29.315 44.214,-29.373C44.208,-29.427 44.202,-29.481 44.195,-29.536C44.189,-29.586 44.183,-29.637 44.176,-29.687C44.17,-29.733 44.164,-29.778 44.157,-29.824C44.151,-29.865 44.145,-29.907 44.139,-29.948C44.133,-29.986 44.127,-30.023 44.12,-30.06C44.114,-30.093 44.108,-30.126 44.102,-30.159C44.096,-30.189 44.09,-30.218 44.083,-30.247C44.078,-30.271 44.072,-30.296 44.065,-30.32C44.06,-30.341 44.054,-30.36 44.047,-30.38C44.042,-30.396 44.037,-30.411 44.03,-30.426C44.025,-30.437 44.02,-30.448 44.013,-30.459C44.009,-30.466 44.004,-30.474 43.997,-30.478C43.992,-30.481 43.987,-30.483 43.981,-30.484" style="fill:none;stroke:black;stroke-width:0.1px;"/>
            <path id="SPLINE48" serif:id="SPLINE" d="M42.811,-19.29C42.807,-19.298 42.802,-19.306 42.798,-19.315C42.792,-19.329 42.786,-19.345 42.781,-19.361C42.775,-19.38 42.769,-19.4 42.763,-19.42C42.757,-19.444 42.751,-19.468 42.746,-19.492C42.739,-19.52 42.733,-19.549 42.728,-19.577C42.721,-19.61 42.715,-19.643 42.709,-19.675C42.703,-19.712 42.697,-19.749 42.691,-19.787C42.684,-19.829 42.678,-19.871 42.672,-19.913C42.665,-19.96 42.659,-20.006 42.652,-20.053C42.646,-20.103 42.64,-20.154 42.633,-20.204C42.627,-20.259 42.621,-20.313 42.614,-20.367C42.608,-20.425 42.602,-20.483 42.596,-20.541C42.589,-20.603 42.583,-20.664 42.577,-20.726C42.571,-20.79 42.565,-20.855 42.559,-20.919C42.553,-20.986 42.547,-21.054 42.541,-21.121C42.535,-21.19 42.529,-21.26 42.523,-21.33C42.518,-21.402 42.512,-21.473 42.507,-21.545C42.501,-21.619 42.495,-21.693 42.49,-21.766C42.485,-21.842 42.479,-21.917 42.474,-21.992C42.469,-22.067 42.464,-22.143 42.459,-22.218C42.454,-22.297 42.432,-22.615 42.427,-22.696C42.421,-22.779 42.325,-24.211 42.318,-24.305C42.312,-24.399 42.23,-25.622 42.223,-25.715C42.217,-25.807 42.14,-26.95 42.135,-27.033C42.129,-27.114 42.124,-27.195 42.118,-27.276C42.113,-27.356 42.108,-27.436 42.102,-27.516C42.097,-27.593 42.092,-27.67 42.087,-27.747C42.081,-27.822 42.076,-27.898 42.071,-27.973C42.065,-28.047 42.06,-28.121 42.054,-28.194C42.049,-28.266 42.043,-28.338 42.037,-28.41C42.032,-28.48 42.026,-28.55 42.02,-28.62C42.014,-28.687 42.008,-28.755 42.002,-28.822C41.996,-28.886 41.99,-28.951 41.984,-29.015C41.978,-29.076 41.971,-29.138 41.965,-29.199C41.959,-29.257 41.953,-29.315 41.946,-29.373C41.94,-29.427 41.934,-29.481 41.927,-29.536C41.921,-29.586 41.915,-29.637 41.908,-29.687C41.902,-29.733 41.896,-29.778 41.89,-29.824C41.884,-29.865 41.878,-29.907 41.871,-29.948C41.865,-29.986 41.859,-30.023 41.852,-30.06C41.847,-30.093 41.841,-30.126 41.834,-30.159C41.828,-30.189 41.822,-30.218 41.816,-30.247C41.81,-30.271 41.804,-30.296 41.797,-30.32C41.792,-30.341 41.786,-30.36 41.78,-30.38C41.774,-30.396 41.769,-30.411 41.762,-30.426C41.757,-30.437 41.752,-30.448 41.745,-30.459C41.741,-30.466 41.736,-30.474 41.729,-30.478C41.724,-30.481 41.719,-30.483 41.713,-30.484" style="fill:none;stroke:black;stroke-width:0.1px;"/>
            <path id="SPLINE49" serif:id="SPLINE" d="M40.544,-19.29C40.539,-19.298 40.535,-19.306 40.531,-19.315C40.524,-19.329 40.518,-19.345 40.513,-19.361C40.507,-19.38 40.501,-19.4 40.496,-19.42C40.489,-19.444 40.483,-19.468 40.478,-19.492C40.471,-19.52 40.465,-19.549 40.46,-19.577C40.453,-19.61 40.447,-19.643 40.441,-19.675C40.435,-19.712 40.429,-19.749 40.423,-19.787C40.416,-19.829 40.41,-19.871 40.404,-19.913C40.397,-19.96 40.391,-20.006 40.385,-20.053C40.378,-20.103 40.372,-20.154 40.366,-20.204C40.359,-20.259 40.353,-20.313 40.347,-20.367C40.34,-20.425 40.334,-20.483 40.328,-20.541C40.322,-20.603 40.315,-20.664 40.309,-20.726C40.303,-20.79 40.297,-20.855 40.291,-20.919C40.285,-20.986 40.279,-21.054 40.273,-21.121C40.267,-21.19 40.261,-21.26 40.256,-21.33C40.25,-21.402 40.244,-21.473 40.239,-21.545C40.233,-21.619 40.228,-21.693 40.222,-21.766C40.217,-21.842 40.212,-21.917 40.206,-21.992C40.201,-22.067 40.196,-22.143 40.191,-22.218C40.186,-22.297 40.181,-22.375 40.175,-22.453C40.17,-22.534 40.13,-23.12 40.125,-23.207C40.119,-23.296 40.019,-24.776 40.013,-24.871C40.006,-24.965 39.89,-26.697 39.884,-26.783C39.878,-26.866 39.856,-27.195 39.851,-27.276C39.845,-27.356 39.84,-27.436 39.835,-27.516C39.829,-27.593 39.824,-27.67 39.819,-27.747C39.814,-27.822 39.808,-27.898 39.803,-27.973C39.798,-28.047 39.792,-28.121 39.787,-28.194C39.781,-28.266 39.775,-28.338 39.77,-28.41C39.764,-28.48 39.758,-28.55 39.752,-28.62C39.746,-28.687 39.74,-28.755 39.734,-28.822C39.728,-28.886 39.722,-28.951 39.716,-29.015C39.71,-29.076 39.704,-29.138 39.697,-29.199C39.691,-29.257 39.685,-29.315 39.679,-29.373C39.677,-29.388 39.675,-29.403 39.674,-29.418" style="fill:none;stroke:black;stroke-width:0.1px;"/>
            <path id="SPLINE50" serif:id="SPLINE" d="M41.146,-24.871C41.145,-24.929 41.137,-25.16 41.135,-25.218C41.133,-25.276 41.125,-25.507 41.123,-25.564C41.121,-25.634 41.118,-25.703 41.116,-25.773C41.113,-25.842 41.111,-25.911 41.109,-25.981C41.106,-26.05 41.104,-26.119 41.102,-26.188C41.099,-26.257 41.091,-26.508 41.089,-26.566C41.087,-26.623 41.079,-26.85 41.077,-26.906C41.075,-26.962 41.073,-27.018 41.071,-27.075C41.068,-27.166 41.065,-27.257 41.062,-27.348C41.059,-27.438 41.055,-27.527 41.052,-27.617C41.049,-27.706 41.046,-27.794 41.043,-27.883C41.04,-27.97 41.037,-28.057 41.034,-28.144C41.031,-28.23 41.028,-28.316 41.025,-28.402C41.022,-28.486 41.019,-28.57 41.016,-28.654C41.013,-28.736 41.01,-28.817 41.006,-28.899C41.003,-28.979 41,-29.058 40.997,-29.138C40.994,-29.211 40.991,-29.283 40.987,-29.356C40.984,-29.426 40.981,-29.497 40.978,-29.567C40.975,-29.635 40.972,-29.703 40.968,-29.771C40.965,-29.835 40.962,-29.9 40.958,-29.965C40.955,-30.028 40.952,-30.091 40.948,-30.153C40.945,-30.212 40.941,-30.272 40.938,-30.331C40.935,-30.387 40.931,-30.443 40.928,-30.5C40.924,-30.552 40.921,-30.605 40.917,-30.658C40.915,-30.687 40.913,-30.716 40.911,-30.746C40.909,-30.774 40.907,-30.802 40.905,-30.83C40.903,-30.856 40.901,-30.883 40.898,-30.91C40.896,-30.935 40.894,-30.961 40.892,-30.986C40.89,-31.015 40.887,-31.043 40.885,-31.072C40.882,-31.099 40.88,-31.126 40.877,-31.152C40.875,-31.177 40.872,-31.202 40.87,-31.226C40.867,-31.249 40.865,-31.271 40.862,-31.294C40.86,-31.311 40.858,-31.329 40.856,-31.346C40.854,-31.361 40.852,-31.377 40.849,-31.393C40.847,-31.407 40.845,-31.421 40.843,-31.435C40.841,-31.448 40.839,-31.46 40.837,-31.473C40.835,-31.484 40.833,-31.494 40.831,-31.505C40.829,-31.514 40.827,-31.523 40.825,-31.532C40.823,-31.54 40.821,-31.548 40.819,-31.555C40.817,-31.561 40.816,-31.568 40.813,-31.574C40.811,-31.579 40.809,-31.584 40.806,-31.59C40.805,-31.593 40.803,-31.596 40.799,-31.599C40.797,-31.6 40.795,-31.601 40.793,-31.601C40.79,-31.601 40.789,-31.599 40.787,-31.597" style="fill:none;stroke:black;stroke-width:0.1px;"/>
            <path id="SPLINE51" serif:id="SPLINE" d="M40.089,-18.872C40.088,-18.87 40.087,-18.868 40.086,-18.866C40.084,-18.862 40.08,-18.859 40.077,-18.859C40.074,-18.858 40.07,-18.86 40.068,-18.863C40.063,-18.867 40.061,-18.873 40.059,-18.878C40.055,-18.887 40.052,-18.896 40.049,-18.904C40.046,-18.917 40.043,-18.929 40.04,-18.941C40.037,-18.957 40.033,-18.974 40.031,-18.99C40.027,-19.009 40.024,-19.029 40.021,-19.049C40.017,-19.072 40.014,-19.096 40.011,-19.12C40.007,-19.147 40.004,-19.174 40.001,-19.201C39.997,-19.232 39.994,-19.263 39.99,-19.294C39.987,-19.329 39.983,-19.364 39.98,-19.398C39.977,-19.434 39.973,-19.47 39.97,-19.505C39.967,-19.544 39.963,-19.583 39.96,-19.621C39.957,-19.664 39.953,-19.706 39.95,-19.748C39.947,-19.793 39.943,-19.838 39.94,-19.883C39.937,-19.931 39.933,-19.979 39.93,-20.028C39.927,-20.079 39.923,-20.13 39.92,-20.181C39.916,-20.235 39.913,-20.29 39.91,-20.344C39.906,-20.401 39.903,-20.458 39.9,-20.515C39.896,-20.573 39.893,-20.631 39.89,-20.689C39.886,-20.75 39.883,-20.81 39.88,-20.87C39.877,-20.933 39.873,-20.997 39.87,-21.06C39.867,-21.125 39.864,-21.191 39.861,-21.256C39.858,-21.324 39.854,-21.392 39.851,-21.46C39.848,-21.53 39.845,-21.6 39.842,-21.67C39.839,-21.742 39.836,-21.815 39.833,-21.887C39.83,-21.961 39.827,-22.036 39.824,-22.11C39.821,-22.184 39.818,-22.257 39.815,-22.331C39.811,-22.406 39.808,-22.481 39.805,-22.556C39.802,-22.633 39.799,-22.71 39.796,-22.788C39.793,-22.866 39.789,-22.944 39.786,-23.023C39.783,-23.103 39.779,-23.183 39.776,-23.263C39.773,-23.344 39.769,-23.425 39.766,-23.506C39.763,-23.588 39.759,-23.671 39.756,-23.753C39.752,-23.837 39.749,-23.92 39.745,-24.003C39.742,-24.073 39.74,-24.143 39.737,-24.212C39.734,-24.282 39.731,-24.352 39.728,-24.422C39.725,-24.493 39.722,-24.564 39.719,-24.634C39.716,-24.705 39.713,-24.776 39.71,-24.846C39.707,-24.917 39.704,-24.988 39.701,-25.059C39.698,-25.13 39.695,-25.201 39.692,-25.271C39.689,-25.342 39.686,-25.413 39.683,-25.484C39.68,-25.555 39.677,-25.626 39.674,-25.696" style="fill:none;stroke:black;stroke-width:0.1px;"/>
            <path id="SPLINE52" serif:id="SPLINE" d="M44.832,-19.257C44.826,-19.259 44.82,-19.26 44.816,-19.263C44.809,-19.268 44.804,-19.275 44.8,-19.282C44.793,-19.293 44.788,-19.304 44.783,-19.315C44.776,-19.33 44.771,-19.345 44.765,-19.361C44.759,-19.38 44.753,-19.4 44.748,-19.42C44.741,-19.444 44.735,-19.468 44.73,-19.492C44.723,-19.52 44.717,-19.549 44.712,-19.577C44.705,-19.61 44.699,-19.643 44.693,-19.675C44.687,-19.712 44.681,-19.749 44.675,-19.787C44.668,-19.829 44.662,-19.871 44.656,-19.913C44.649,-19.96 44.643,-20.006 44.637,-20.053C44.63,-20.103 44.624,-20.154 44.618,-20.204C44.611,-20.259 44.605,-20.313 44.599,-20.367C44.592,-20.425 44.586,-20.483 44.58,-20.541C44.573,-20.603 44.567,-20.664 44.561,-20.726C44.555,-20.79 44.549,-20.855 44.543,-20.919C44.537,-20.986 44.531,-21.054 44.525,-21.121C44.519,-21.19 44.513,-21.26 44.508,-21.33C44.502,-21.402 44.496,-21.473 44.491,-21.545C44.485,-21.619 44.48,-21.693 44.474,-21.766C44.469,-21.842 44.464,-21.917 44.458,-21.992C44.453,-22.067 44.448,-22.143 44.443,-22.218C44.438,-22.297 44.416,-22.615 44.411,-22.696C44.405,-22.779 44.309,-24.211 44.303,-24.305C44.296,-24.399 44.214,-25.622 44.208,-25.715C44.202,-25.807 44.108,-27.195 44.103,-27.276C44.097,-27.356 44.092,-27.436 44.087,-27.516C44.081,-27.593 44.076,-27.67 44.071,-27.747C44.066,-27.822 44.06,-27.898 44.055,-27.973C44.05,-28.047 44.044,-28.121 44.039,-28.194C44.033,-28.266 44.027,-28.339 44.022,-28.41C44.016,-28.48 44.01,-28.55 44.004,-28.62C43.998,-28.687 43.992,-28.755 43.986,-28.822C43.98,-28.886 43.974,-28.951 43.968,-29.015C43.962,-29.076 43.956,-29.138 43.949,-29.199C43.943,-29.257 43.937,-29.315 43.931,-29.373C43.924,-29.427 43.918,-29.481 43.912,-29.536C43.906,-29.586 43.899,-29.637 43.893,-29.687C43.887,-29.733 43.88,-29.778 43.874,-29.824C43.868,-29.865 43.862,-29.907 43.855,-29.948C43.849,-29.986 43.843,-30.023 43.837,-30.06C43.831,-30.093 43.825,-30.126 43.818,-30.159C43.813,-30.189 43.806,-30.218 43.8,-30.247C43.794,-30.271 43.788,-30.296 43.782,-30.32C43.776,-30.341 43.77,-30.36 43.764,-30.38C43.759,-30.396 43.753,-30.411 43.747,-30.426C43.743,-30.435 43.738,-30.443 43.733,-30.452" style="fill:none;stroke:black;stroke-width:0.1px;"/>
            <path id="SPLINE53" serif:id="SPLINE" d="M42.564,-19.257C42.558,-19.259 42.553,-19.26 42.548,-19.263C42.541,-19.268 42.536,-19.275 42.532,-19.282C42.525,-19.293 42.52,-19.304 42.515,-19.315C42.508,-19.33 42.503,-19.345 42.498,-19.361C42.491,-19.38 42.485,-19.4 42.48,-19.42C42.474,-19.444 42.468,-19.468 42.462,-19.492C42.456,-19.52 42.45,-19.549 42.444,-19.577C42.438,-19.61 42.431,-19.643 42.426,-19.675C42.419,-19.712 42.413,-19.749 42.407,-19.787C42.4,-19.829 42.394,-19.871 42.388,-19.913C42.381,-19.96 42.375,-20.006 42.369,-20.053C42.362,-20.103 42.356,-20.154 42.35,-20.204C42.343,-20.259 42.337,-20.313 42.331,-20.367C42.324,-20.425 42.318,-20.483 42.312,-20.541C42.306,-20.603 42.3,-20.664 42.294,-20.726C42.287,-20.79 42.281,-20.855 42.275,-20.919C42.269,-20.986 42.263,-21.054 42.257,-21.121C42.251,-21.19 42.246,-21.26 42.24,-21.33C42.234,-21.402 42.229,-21.473 42.223,-21.545C42.217,-21.619 42.212,-21.693 42.207,-21.766C42.201,-21.842 42.196,-21.917 42.191,-21.992C42.186,-22.067 42.18,-22.143 42.175,-22.218C42.17,-22.297 42.165,-22.375 42.16,-22.453C42.154,-22.534 42.115,-23.12 42.109,-23.207C42.103,-23.296 41.965,-25.341 41.959,-25.435C41.953,-25.528 41.874,-26.697 41.868,-26.783C41.863,-26.866 41.84,-27.195 41.835,-27.276C41.83,-27.356 41.824,-27.436 41.819,-27.516C41.814,-27.593 41.808,-27.67 41.803,-27.747C41.798,-27.822 41.793,-27.898 41.787,-27.973C41.782,-28.047 41.776,-28.121 41.771,-28.194C41.765,-28.266 41.76,-28.338 41.754,-28.41C41.748,-28.48 41.742,-28.55 41.736,-28.62C41.731,-28.687 41.725,-28.755 41.718,-28.822C41.713,-28.886 41.706,-28.951 41.7,-29.015C41.694,-29.076 41.688,-29.138 41.682,-29.199C41.676,-29.257 41.669,-29.315 41.663,-29.373C41.657,-29.427 41.65,-29.481 41.644,-29.536C41.638,-29.586 41.632,-29.637 41.625,-29.687C41.619,-29.733 41.613,-29.778 41.606,-29.824C41.6,-29.865 41.594,-29.907 41.588,-29.948C41.582,-29.986 41.575,-30.023 41.569,-30.06C41.563,-30.093 41.557,-30.126 41.551,-30.159C41.545,-30.189 41.539,-30.218 41.532,-30.247C41.527,-30.271 41.521,-30.296 41.514,-30.32C41.509,-30.341 41.503,-30.36 41.496,-30.38C41.491,-30.396 41.486,-30.411 41.479,-30.426C41.475,-30.435 41.47,-30.443 41.466,-30.452" style="fill:none;stroke:black;stroke-width:0.1px;"/>
            <path id="SPLINE54" serif:id="SPLINE" d="M40.296,-19.257C40.291,-19.259 40.285,-19.26 40.28,-19.263C40.273,-19.268 40.269,-19.275 40.264,-19.282C40.258,-19.293 40.252,-19.304 40.247,-19.315C40.241,-19.33 40.235,-19.345 40.23,-19.361C40.223,-19.38 40.218,-19.4 40.212,-19.42C40.206,-19.444 40.2,-19.468 40.194,-19.492C40.188,-19.52 40.182,-19.549 40.176,-19.577C40.17,-19.61 40.164,-19.643 40.158,-19.675C40.151,-19.712 40.145,-19.749 40.139,-19.787C40.133,-19.829 40.126,-19.871 40.12,-19.913C40.114,-19.96 40.107,-20.006 40.101,-20.053C40.095,-20.103 40.088,-20.154 40.082,-20.204C40.076,-20.259 40.069,-20.313 40.063,-20.367C40.057,-20.425 40.051,-20.483 40.044,-20.541C40.038,-20.603 40.032,-20.664 40.026,-20.726C40.02,-20.79 40.014,-20.855 40.008,-20.919C40.001,-20.986 39.996,-21.054 39.99,-21.121C39.984,-21.19 39.978,-21.26 39.972,-21.33C39.966,-21.402 39.961,-21.473 39.955,-21.545C39.95,-21.619 39.944,-21.693 39.939,-21.766C39.933,-21.842 39.928,-21.917 39.923,-21.992C39.918,-22.067 39.913,-22.143 39.908,-22.218C39.902,-22.297 39.881,-22.615 39.876,-22.696C39.87,-22.779 39.774,-24.211 39.767,-24.305C39.761,-24.399 39.679,-25.609 39.674,-25.696" style="fill:none;stroke:black;stroke-width:0.1px;"/>
            <path id="LINE41" serif:id="LINE" d="M45.398,-29.927L45.398,-31.491" style="fill:none;stroke:black;stroke-width:0.1px;"/>
            <path id="SPLINE55" serif:id="SPLINE" d="M41.146,-24.871C41.152,-24.771 41.22,-23.495 41.225,-23.398C41.23,-23.303 41.264,-22.672 41.268,-22.585C41.273,-22.5 41.318,-21.657 41.323,-21.569C41.327,-21.483 41.332,-21.398 41.336,-21.312C41.341,-21.228 41.345,-21.145 41.35,-21.061C41.355,-20.978 41.359,-20.896 41.364,-20.814C41.369,-20.733 41.374,-20.652 41.379,-20.571C41.384,-20.493 41.389,-20.414 41.394,-20.335C41.399,-20.258 41.404,-20.182 41.409,-20.105C41.414,-20.031 41.42,-19.957 41.425,-19.883C41.43,-19.815 41.435,-19.747 41.44,-19.679C41.445,-19.613 41.45,-19.548 41.455,-19.483C41.461,-19.42 41.466,-19.358 41.471,-19.295C41.476,-19.236 41.481,-19.176 41.487,-19.117C41.492,-19.061 41.497,-19.005 41.503,-18.949C41.508,-18.896 41.513,-18.843 41.518,-18.79C41.523,-18.744 41.528,-18.697 41.533,-18.651C41.538,-18.608 41.543,-18.565 41.548,-18.521C41.553,-18.482 41.558,-18.442 41.563,-18.402C41.568,-18.366 41.573,-18.329 41.578,-18.293C41.583,-18.26 41.588,-18.227 41.593,-18.194C41.598,-18.162 41.603,-18.129 41.609,-18.097C41.614,-18.069 41.619,-18.04 41.625,-18.012C41.63,-17.989 41.635,-17.965 41.641,-17.942C41.645,-17.922 41.65,-17.903 41.656,-17.884C41.66,-17.869 41.665,-17.854 41.671,-17.84C41.675,-17.829 41.68,-17.819 41.685,-17.809C41.689,-17.802 41.693,-17.795 41.7,-17.79C41.704,-17.787 41.709,-17.784 41.713,-17.784C41.718,-17.784 41.723,-17.786 41.726,-17.79C41.732,-17.794 41.737,-17.8 41.74,-17.806C41.74,-17.807 41.741,-17.808 41.741,-17.809" style="fill:none;stroke:black;stroke-width:0.1px;"/>
            <path id="SPLINE56" serif:id="SPLINE" d="M42.847,-31.957C42.852,-31.956 42.856,-31.954 42.86,-31.952C42.866,-31.948 42.87,-31.941 42.874,-31.935C42.879,-31.926 42.884,-31.916 42.888,-31.907C42.893,-31.894 42.898,-31.88 42.902,-31.867C42.907,-31.85 42.912,-31.832 42.916,-31.815C42.922,-31.794 42.927,-31.773 42.931,-31.751C42.936,-31.728 42.941,-31.704 42.945,-31.68C42.95,-31.653 42.955,-31.625 42.96,-31.598C42.965,-31.567 42.97,-31.536 42.974,-31.505C42.979,-31.471 42.984,-31.437 42.989,-31.402C42.994,-31.364 42.999,-31.326 43.004,-31.289C43.01,-31.242 43.015,-31.196 43.021,-31.15C43.026,-31.099 43.032,-31.049 43.037,-30.998C43.043,-30.944 43.049,-30.889 43.054,-30.835C43.06,-30.777 43.065,-30.719 43.071,-30.66C43.076,-30.598 43.082,-30.537 43.087,-30.475C43.093,-30.409 43.098,-30.344 43.104,-30.279C43.109,-30.21 43.114,-30.142 43.12,-30.073C43.125,-30.002 43.131,-29.93 43.136,-29.859C43.141,-29.788 43.146,-29.718 43.151,-29.647C43.156,-29.575 43.161,-29.502 43.165,-29.429C43.17,-29.355 43.175,-29.28 43.18,-29.205C43.184,-29.129 43.189,-29.053 43.194,-28.976C43.198,-28.898 43.203,-28.82 43.207,-28.742C43.212,-28.663 43.216,-28.584 43.22,-28.505C43.226,-28.409 43.231,-28.314 43.236,-28.219C43.241,-28.12 43.246,-28.021 43.251,-27.923C43.257,-27.82 43.279,-27.406 43.285,-27.301C43.29,-27.205 43.359,-25.909 43.364,-25.806C43.37,-25.703 43.456,-24.079 43.462,-23.981C43.467,-23.883 43.572,-21.916 43.576,-21.834C43.581,-21.746 43.586,-21.657 43.59,-21.569C43.595,-21.483 43.599,-21.398 43.604,-21.312C43.608,-21.228 43.613,-21.145 43.618,-21.061C43.622,-20.978 43.627,-20.896 43.632,-20.814C43.637,-20.733 43.642,-20.652 43.647,-20.571C43.651,-20.493 43.656,-20.414 43.662,-20.335C43.667,-20.258 43.672,-20.182 43.677,-20.105C43.682,-20.031 43.687,-19.957 43.693,-19.883C43.698,-19.815 43.703,-19.747 43.708,-19.679C43.713,-19.613 43.718,-19.548 43.723,-19.483C43.728,-19.42 43.733,-19.358 43.739,-19.295C43.744,-19.236 43.749,-19.176 43.754,-19.117C43.76,-19.061 43.765,-19.005 43.77,-18.949C43.775,-18.896 43.781,-18.843 43.786,-18.79C43.791,-18.744 43.796,-18.697 43.801,-18.651C43.806,-18.608 43.811,-18.565 43.816,-18.521C43.821,-18.482 43.826,-18.442 43.831,-18.402C43.836,-18.366 43.841,-18.329 43.846,-18.293C43.85,-18.26 43.855,-18.227 43.86,-18.194C43.866,-18.162 43.871,-18.129 43.877,-18.097C43.882,-18.069 43.887,-18.04 43.893,-18.012C43.897,-17.989 43.903,-17.965 43.908,-17.942C43.913,-17.922 43.918,-17.903 43.924,-17.884C43.928,-17.869 43.933,-17.854 43.939,-17.84C43.943,-17.829 43.948,-17.819 43.953,-17.809C43.957,-17.802 43.961,-17.795 43.967,-17.79C43.971,-17.787 43.976,-17.784 43.981,-17.784C43.986,-17.784 43.99,-17.786 43.994,-17.79C44,-17.794 44.004,-17.8 44.008,-17.806C44.008,-17.807 44.009,-17.808 44.009,-17.809" style="fill:none;stroke:black;stroke-width:0.1px;"/>
            <path id="SPLINE57" serif:id="SPLINE" d="M45.115,-31.957C45.12,-31.956 45.124,-31.954 45.128,-31.952C45.134,-31.948 45.138,-31.941 45.141,-31.935C45.147,-31.926 45.151,-31.916 45.155,-31.907C45.161,-31.894 45.165,-31.88 45.169,-31.867C45.175,-31.85 45.18,-31.832 45.184,-31.815C45.189,-31.794 45.194,-31.773 45.199,-31.751C45.204,-31.728 45.209,-31.704 45.213,-31.68C45.218,-31.653 45.223,-31.625 45.227,-31.598C45.233,-31.567 45.237,-31.536 45.242,-31.505C45.247,-31.471 45.252,-31.437 45.257,-31.402C45.262,-31.364 45.267,-31.326 45.272,-31.289C45.277,-31.242 45.283,-31.196 45.288,-31.15C45.294,-31.099 45.3,-31.049 45.305,-30.998C45.311,-30.944 45.316,-30.889 45.322,-30.835C45.327,-30.777 45.333,-30.719 45.338,-30.66C45.344,-30.598 45.35,-30.537 45.355,-30.475C45.36,-30.409 45.366,-30.344 45.371,-30.279C45.377,-30.21 45.382,-30.142 45.387,-30.073C45.391,-30.024 45.395,-29.976 45.398,-29.927" style="fill:none;stroke:black;stroke-width:0.1px;"/>
            <path id="LINE42" serif:id="LINE" d="M41.146,-24.871L41.146,-19.814" style="fill:none;stroke:black;stroke-width:0.1px;"/>
            <path id="LINE43" serif:id="LINE" d="M39.674,-25.696L39.674,-29.418" style="fill:none;stroke:black;stroke-width:0.1px;"/>
            <path id="LINE44" serif:id="LINE" d="M39.446,-19.485L39.446,-30.256" style="fill:none;stroke:black;stroke-width:0.1px;"/>
            <path id="LINE45" serif:id="LINE" d="M45.398,-24.871L45.398,-29.927" style="fill:none;stroke:black;stroke-width:0.1px;"/>
            <path id="LINE46" serif:id="LINE" d="M45.398,-18.74L45.398,-24.871" style="fill:none;stroke:black;stroke-width:0.1px;"/>
            <path id="SPLINE58" serif:id="SPLINE" d="M45.965,-17.784C45.961,-17.785 45.956,-17.787 45.952,-17.79C45.947,-17.793 45.943,-17.8 45.939,-17.806C45.934,-17.816 45.929,-17.825 45.925,-17.834C45.92,-17.847 45.915,-17.861 45.911,-17.874C45.906,-17.892 45.901,-17.909 45.896,-17.926C45.891,-17.947 45.886,-17.969 45.882,-17.99C45.876,-18.014 45.872,-18.037 45.867,-18.061C45.862,-18.088 45.857,-18.116 45.853,-18.143C45.848,-18.174 45.843,-18.205 45.838,-18.236C45.833,-18.27 45.828,-18.305 45.824,-18.339C45.818,-18.377 45.813,-18.415 45.809,-18.453C45.803,-18.499 45.797,-18.545 45.792,-18.592C45.786,-18.642 45.781,-18.692 45.775,-18.743C45.77,-18.797 45.764,-18.852 45.759,-18.906C45.753,-18.964 45.747,-19.023 45.742,-19.081C45.736,-19.143 45.731,-19.205 45.725,-19.267C45.72,-19.332 45.714,-19.397 45.709,-19.463C45.704,-19.531 45.698,-19.6 45.693,-19.668C45.687,-19.74 45.682,-19.811 45.677,-19.883C45.672,-19.953 45.667,-20.023 45.662,-20.094C45.657,-20.167 45.652,-20.239 45.647,-20.312C45.642,-20.387 45.638,-20.461 45.633,-20.536C45.628,-20.612 45.624,-20.689 45.619,-20.765C45.614,-20.843 45.61,-20.921 45.605,-20.999C45.601,-21.078 45.597,-21.157 45.592,-21.237C45.587,-21.332 45.582,-21.427 45.577,-21.523C45.572,-21.621 45.566,-21.72 45.561,-21.819C45.556,-21.921 45.518,-22.633 45.513,-22.729C45.507,-22.827 45.421,-24.453 45.415,-24.557C45.41,-24.662 45.404,-24.766 45.398,-24.871" style="fill:none;stroke:black;stroke-width:0.1px;"/>
            <path id="SPLINE59" serif:id="SPLINE" d="M46.816,-24.871C46.809,-24.965 46.728,-26.173 46.722,-26.264C46.716,-26.351 46.659,-27.195 46.654,-27.276C46.648,-27.356 46.643,-27.436 46.638,-27.516C46.633,-27.593 46.627,-27.67 46.622,-27.747C46.617,-27.822 46.612,-27.898 46.606,-27.973C46.601,-28.047 46.595,-28.121 46.59,-28.194C46.584,-28.266 46.579,-28.338 46.573,-28.41C46.567,-28.48 46.561,-28.55 46.555,-28.62C46.549,-28.687 46.543,-28.755 46.537,-28.822C46.531,-28.886 46.525,-28.951 46.519,-29.015C46.513,-29.076 46.507,-29.138 46.501,-29.199C46.494,-29.257 46.488,-29.315 46.482,-29.373C46.476,-29.427 46.469,-29.481 46.463,-29.536C46.457,-29.586 46.45,-29.637 46.444,-29.687C46.438,-29.733 46.432,-29.778 46.425,-29.824C46.419,-29.865 46.413,-29.907 46.406,-29.948C46.401,-29.986 46.394,-30.023 46.388,-30.06C46.382,-30.093 46.376,-30.126 46.37,-30.159C46.364,-30.189 46.358,-30.218 46.351,-30.247C46.345,-30.271 46.339,-30.296 46.333,-30.32C46.327,-30.341 46.322,-30.36 46.315,-30.38C46.31,-30.396 46.304,-30.411 46.298,-30.426C46.293,-30.437 46.287,-30.448 46.281,-30.459C46.276,-30.466 46.271,-30.474 46.265,-30.478C46.26,-30.481 46.254,-30.483 46.249,-30.484" style="fill:none;stroke:black;stroke-width:0.1px;"/>
            <path id="LINE47" serif:id="LINE" d="M45.398,-29.927L45.398,-31.491" style="fill:none;stroke:black;stroke-width:0.1px;"/>
            <path id="SPLINE60" serif:id="SPLINE" d="M46.816,-20.866C46.814,-20.884 46.812,-20.902 46.811,-20.919C46.804,-20.986 46.799,-21.054 46.793,-21.121C46.787,-21.19 46.781,-21.26 46.775,-21.33C46.77,-21.402 46.764,-21.473 46.758,-21.545C46.753,-21.619 46.747,-21.693 46.742,-21.766C46.737,-21.842 46.731,-21.917 46.726,-21.992C46.721,-22.067 46.716,-22.143 46.711,-22.218C46.706,-22.297 46.7,-22.375 46.695,-22.453C46.69,-22.534 46.65,-23.12 46.644,-23.207C46.638,-23.296 46.501,-25.341 46.494,-25.435C46.488,-25.528 46.409,-26.697 46.404,-26.783C46.398,-26.866 46.376,-27.195 46.37,-27.276C46.365,-27.356 46.36,-27.436 46.354,-27.516C46.349,-27.593 46.344,-27.67 46.339,-27.747C46.333,-27.822 46.328,-27.898 46.323,-27.973C46.317,-28.047 46.312,-28.121 46.306,-28.194C46.301,-28.266 46.295,-28.338 46.289,-28.41C46.284,-28.48 46.278,-28.55 46.272,-28.62C46.266,-28.687 46.26,-28.755 46.254,-28.822C46.248,-28.886 46.242,-28.951 46.236,-29.015C46.23,-29.076 46.223,-29.138 46.217,-29.199C46.211,-29.257 46.205,-29.315 46.198,-29.373C46.192,-29.427 46.186,-29.481 46.179,-29.536C46.173,-29.586 46.167,-29.637 46.16,-29.687C46.154,-29.733 46.148,-29.778 46.142,-29.824C46.136,-29.865 46.129,-29.907 46.123,-29.948C46.117,-29.986 46.111,-30.023 46.104,-30.06C46.099,-30.093 46.093,-30.126 46.086,-30.159C46.08,-30.189 46.074,-30.218 46.068,-30.247C46.062,-30.271 46.056,-30.296 46.049,-30.32C46.044,-30.341 46.038,-30.36 46.032,-30.38C46.027,-30.396 46.021,-30.411 46.014,-30.426C46.01,-30.435 46.006,-30.443 46.001,-30.452" style="fill:none;stroke:black;stroke-width:0.1px;"/>
            <path id="SPLINE61" serif:id="SPLINE" d="M45.398,-29.927C45.4,-29.904 45.402,-29.881 45.403,-29.859C45.409,-29.788 45.414,-29.718 45.418,-29.647C45.423,-29.575 45.428,-29.502 45.433,-29.429C45.438,-29.355 45.443,-29.28 45.447,-29.205C45.452,-29.129 45.457,-29.053 45.461,-28.976C45.466,-28.898 45.47,-28.82 45.475,-28.742C45.479,-28.663 45.484,-28.584 45.488,-28.505C45.493,-28.409 45.498,-28.314 45.503,-28.219C45.509,-28.12 45.514,-28.021 45.519,-27.923C45.525,-27.82 45.563,-27.109 45.568,-27.013C45.573,-26.914 45.66,-25.288 45.665,-25.184C45.671,-25.079 45.74,-23.786 45.745,-23.688C45.75,-23.591 45.799,-22.672 45.804,-22.585C45.808,-22.5 45.853,-21.657 45.858,-21.569C45.863,-21.483 45.867,-21.398 45.872,-21.312C45.876,-21.228 45.881,-21.145 45.885,-21.061C45.89,-20.978 45.895,-20.896 45.9,-20.814C45.904,-20.733 45.909,-20.652 45.914,-20.571C45.919,-20.493 45.924,-20.414 45.929,-20.335C45.934,-20.258 45.939,-20.182 45.945,-20.105C45.95,-20.031 45.955,-19.957 45.96,-19.883C45.965,-19.815 45.97,-19.747 45.976,-19.679C45.981,-19.613 45.986,-19.548 45.991,-19.483C45.996,-19.42 46.001,-19.358 46.006,-19.295C46.012,-19.236 46.017,-19.176 46.022,-19.117C46.027,-19.061 46.033,-19.005 46.038,-18.949C46.043,-18.896 46.048,-18.843 46.054,-18.79C46.059,-18.744 46.064,-18.697 46.069,-18.651C46.074,-18.608 46.079,-18.565 46.084,-18.521C46.089,-18.482 46.094,-18.442 46.099,-18.402C46.103,-18.366 46.108,-18.329 46.113,-18.293C46.118,-18.26 46.123,-18.227 46.128,-18.194C46.133,-18.162 46.139,-18.129 46.144,-18.097C46.149,-18.069 46.155,-18.04 46.16,-18.012C46.165,-17.989 46.17,-17.965 46.176,-17.942C46.181,-17.922 46.186,-17.903 46.191,-17.884C46.196,-17.869 46.201,-17.854 46.206,-17.84C46.211,-17.829 46.215,-17.819 46.221,-17.809C46.225,-17.802 46.229,-17.795 46.235,-17.79C46.239,-17.787 46.244,-17.784 46.249,-17.784C46.253,-17.784 46.258,-17.786 46.262,-17.79C46.268,-17.794 46.272,-17.8 46.275,-17.806C46.276,-17.807 46.276,-17.808 46.277,-17.809" style="fill:none;stroke:black;stroke-width:0.1px;"/>
            <path id="LINE48" serif:id="LINE" d="M45.398,-24.871L45.398,-29.927" style="fill:none;stroke:black;stroke-width:0.1px;"/>
            <g id="ROTATED-DIMENSION" serif:id="ROTATED DIMENSION">
                <path id="SOLID" d="M55.716,-34.365L54.973,-34.479L54.973,-34.251L55.716,-34.365Z"/>
                <path id="SOLID1" serif:id="SOLID" d="M39.446,-34.365L40.188,-34.251L40.188,-34.479L39.446,-34.365Z"/>
                <path id="LINE49" serif:id="LINE" d="M55.716,-32.722L55.716,-34.747" style="fill:none;stroke:black;stroke-width:0.1px;"/>
                <path id="LINE50" serif:id="LINE" d="M39.446,-32.722L39.446,-34.747" style="fill:none;stroke:black;stroke-width:0.1px;"/>
                <path id="LINE51" serif:id="LINE" d="M55.716,-34.365L48.998,-34.365" style="fill:none;stroke:black;stroke-width:0.1px;"/>
                <path id="LINE52" serif:id="LINE" d="M39.446,-34.365L46.165,-34.365" style="fill:none;stroke:black;stroke-width:0.1px;"/>
                <g id="MTEXT" transform="matrix(2.834646,0,0,2.834646,46.122536,-34.012897)">
                    <g transform="matrix(0.948,0,0,1,0,0)">
                        <text x="0px" y="0px" style="font-family:'ArialMT', 'Arial', sans-serif;font-size:0.377px;">30mm</text>
                    </g>
                </g>
            </g>
            <g id="MTEXT1" serif:id="MTEXT" transform="matrix(2.834646,0,0,2.834646,41.542521,-14.705661)">
                <g transform="matrix(0.948,0,0,1,0,0)">
                    <text x="0px" y="0px" style="font-family:'ArialMT', 'Arial', sans-serif;font-size:0.377px;">M5 x 0.8mm</text>
                </g>
            </g>
            <g id="LEADER">
                <path id="SOLID2" serif:id="SOLID" d="M49.507,-17.259L50.046,-17.784L49.706,-17.113L49.507,-17.259Z"/>
                <path id="LINE53" serif:id="LINE" d="M49.606,-17.186L48.084,-15.118" style="fill:none;stroke:black;stroke-width:0.1px;"/>
                <path id="LINE54" serif:id="LINE" d="M48.084,-15.118L47.319,-15.118" style="fill:none;stroke:black;stroke-width:0.1px;"/>
            </g>
            <path id="LINE55" serif:id="LINE" d="M46.816,-32.257L46.816,-25.356" style="fill:none;stroke:black;stroke-width:0.1px;stroke-dasharray:0.306,0.153;"/>
            <path id="LINE56" serif:id="LINE" d="M46.816,-25.356L47.298,-25.597" style="fill:none;stroke:black;stroke-width:0.1px;stroke-dasharray:0.306,0.153;"/>
            <path id="LINE57" serif:id="LINE" d="M47.298,-25.597L46.816,-25.115" style="fill:none;stroke:black;stroke-width:0.1px;stroke-dasharray:0.306,0.153;"/>
            <path id="LINE58" serif:id="LINE" d="M46.816,-25.115L46.334,-24.633" style="fill:none;stroke:black;stroke-width:0.1px;stroke-dasharray:0.306,0.153;"/>
            <path id="LINE59" serif:id="LINE" d="M46.334,-24.633L46.816,-24.874" style="fill:none;stroke:black;stroke-width:0.1px;stroke-dasharray:0.306,0.153;"/>
            <path id="LINE60" serif:id="LINE" d="M46.816,-24.874L46.816,-17.974" style="fill:none;stroke:black;stroke-width:0.1px;stroke-dasharray:0.306,0.153;"/>
            <path id="LINE61" serif:id="LINE" d="M48.346,-32.257L48.346,-25.356" style="fill:none;stroke:black;stroke-width:0.1px;stroke-dasharray:0.306,0.153;"/>
            <path id="LINE62" serif:id="LINE" d="M48.346,-25.356L48.827,-25.597" style="fill:none;stroke:black;stroke-width:0.1px;stroke-dasharray:0.306,0.153;"/>
            <path id="LINE63" serif:id="LINE" d="M48.827,-25.597L48.346,-25.115" style="fill:none;stroke:black;stroke-width:0.1px;stroke-dasharray:0.306,0.153;"/>
            <path id="LINE64" serif:id="LINE" d="M48.346,-25.115L47.864,-24.633" style="fill:none;stroke:black;stroke-width:0.1px;stroke-dasharray:0.306,0.153;"/>
            <path id="LINE65" serif:id="LINE" d="M47.864,-24.633L48.346,-24.874" style="fill:none;stroke:black;stroke-width:0.1px;stroke-dasharray:0.306,0.153;"/>
            <path id="LINE66" serif:id="LINE" d="M48.346,-24.874L48.346,-17.974" style="fill:none;stroke:black;stroke-width:0.1px;stroke-dasharray:0.306,0.153;"/>
            <path id="ARC" d="M25.121,-19.814C26.478,-21.147 27.243,-22.969 27.243,-24.871" style="fill:none;stroke:black;stroke-width:0.1px;"/>
            <path id="SPLINE62" serif:id="SPLINE" d="M23.448,-29.418C23.865,-29.206 24.247,-28.947 24.594,-28.64C24.941,-28.334 25.251,-27.977 25.513,-27.596C25.776,-27.214 25.999,-26.8 26.172,-26.37C26.345,-25.94 26.471,-25.495 26.547,-25.036C26.623,-24.577 26.649,-24.11 26.624,-23.65C26.599,-23.189 26.523,-22.724 26.398,-22.277C26.273,-21.829 26.099,-21.4 25.884,-20.987C25.669,-20.575 25.413,-20.18 25.121,-19.814" style="fill:none;stroke:black;stroke-width:0.1px;"/>
            <path id="ARC1" serif:id="ARC" d="M25.709,-25.696C25.487,-27.19 24.672,-28.532 23.448,-29.418" style="fill:none;stroke:black;stroke-width:0.1px;"/>
            <path id="CIRCLE" d="M20.156,-19.485C23.129,-19.485 25.542,-21.898 25.542,-24.871C25.542,-27.843 23.129,-30.256 20.156,-30.256C17.184,-30.256 14.771,-27.843 14.771,-24.871C14.771,-21.898 17.184,-19.485 20.156,-19.485Z" style="fill:none;stroke:black;stroke-width:0.1px;"/>
            <path id="SPLINE63" serif:id="SPLINE" d="M27.243,-24.871C27.228,-25.3 27.175,-25.721 27.085,-26.136C26.995,-26.55 26.867,-26.961 26.703,-27.354C26.539,-27.748 26.341,-28.123 26.111,-28.479C25.88,-28.834 25.613,-29.174 25.319,-29.482C25.025,-29.79 24.706,-30.067 24.361,-30.315C24.016,-30.563 23.643,-30.781 23.258,-30.961C22.873,-31.14 22.474,-31.283 22.061,-31.388C21.648,-31.494 21.222,-31.561 20.799,-31.587C19.953,-31.641 19.087,-31.532 18.284,-31.266C17.48,-31 16.719,-30.572 16.074,-30.022C15.752,-29.746 15.451,-29.435 15.186,-29.102C14.922,-28.768 14.692,-28.413 14.496,-28.035C14.301,-27.657 14.141,-27.254 14.026,-26.846C13.91,-26.438 13.835,-26.021 13.803,-25.594C13.737,-24.74 13.845,-23.883 14.119,-23.074C14.255,-22.669 14.431,-22.283 14.644,-21.915C14.857,-21.548 15.112,-21.197 15.397,-20.882C15.681,-20.566 15.996,-20.283 16.341,-20.031C16.687,-19.779 17.059,-19.564 17.446,-19.391C17.833,-19.218 18.243,-19.084 18.66,-18.995C19.078,-18.905 19.5,-18.86 19.925,-18.859C20.351,-18.857 20.782,-18.902 21.196,-18.992C21.611,-19.081 22.014,-19.214 22.404,-19.393C22.795,-19.573 23.16,-19.791 23.499,-20.047C23.838,-20.302 24.153,-20.6 24.429,-20.923C24.705,-21.246 24.945,-21.597 25.146,-21.975C25.348,-22.353 25.505,-22.751 25.615,-23.161C25.726,-23.57 25.791,-23.997 25.807,-24.424C25.822,-24.85 25.79,-25.274 25.709,-25.696" style="fill:none;stroke:black;stroke-width:0.1px;"/>
            <path id="SPLINE64" serif:id="SPLINE" d="M27.243,-24.871C27.243,-25.699 27.094,-26.527 26.82,-27.282C26.546,-28.038 26.166,-28.711 25.661,-29.333C25.157,-29.956 24.527,-30.51 23.818,-30.938C23.108,-31.366 22.322,-31.666 21.53,-31.823C21.135,-31.901 20.738,-31.944 20.349,-31.955C19.96,-31.965 19.571,-31.944 19.175,-31.889C18.385,-31.778 17.586,-31.526 16.853,-31.14C16.12,-30.754 15.456,-30.235 14.912,-29.636C14.64,-29.337 14.397,-29.018 14.186,-28.689C13.976,-28.359 13.794,-28.018 13.638,-27.652C13.326,-26.92 13.13,-26.108 13.082,-25.282C13.034,-24.455 13.134,-23.617 13.367,-22.84C13.483,-22.451 13.632,-22.077 13.806,-21.725C13.98,-21.373 14.179,-21.044 14.411,-20.722C14.875,-20.08 15.467,-19.494 16.149,-19.026C16.832,-18.558 17.602,-18.21 18.39,-18.008C18.784,-17.906 19.182,-17.84 19.575,-17.808C19.968,-17.776 20.352,-17.776 20.746,-17.809C21.532,-17.874 22.338,-18.078 23.091,-18.42C23.843,-18.762 24.54,-19.243 25.121,-19.814" style="fill:none;stroke:black;stroke-width:0.1px;"/>
            <path id="LINE67" serif:id="LINE" d="M25.121,-29.927L25.111,-29.935" style="fill:none;stroke:black;stroke-width:0.1px;"/>
            <g id="ROTATED-DIMENSION1" serif:id="ROTATED DIMENSION">
                <path id="SOLID3" serif:id="SOLID" d="M13.07,-34.365L13.812,-34.251L13.812,-34.479L13.07,-34.365Z"/>
                <path id="SOLID4" serif:id="SOLID" d="M27.243,-34.365L26.5,-34.479L26.5,-34.251L27.243,-34.365Z"/>
                <path id="LINE68" serif:id="LINE" d="M13.07,-25.636L13.07,-34.747" style="fill:none;stroke:black;stroke-width:0.1px;"/>
                <path id="LINE69" serif:id="LINE" d="M27.243,-25.636L27.243,-34.747" style="fill:none;stroke:black;stroke-width:0.1px;"/>
                <path id="LINE70" serif:id="LINE" d="M13.07,-34.365L19.024,-34.365" style="fill:none;stroke:black;stroke-width:0.1px;"/>
                <path id="LINE71" serif:id="LINE" d="M27.243,-34.365L21.291,-34.365" style="fill:none;stroke:black;stroke-width:0.1px;"/>
                <g id="MTEXT2" serif:id="MTEXT" transform="matrix(2.834646,0,0,2.834646,18.982229,-34.015956)">
                    <g transform="matrix(0.948,0,0,1,0,0)">
                        <text x="0px" y="0px" style="font-family:'ArialMT', 'Arial', sans-serif;font-size:0.377px;">5mm</text>
                    </g>
                </g>
            </g>
        </g>
    </g>
</svg>
